<svg xmlns="http://www.w3.org/2000/svg" xmlns:xlink="http://www.w3.org/1999/xlink" width="730.585" height="445.27" viewBox="0 0 730.585 445.27">
  <defs>
    <clipPath id="clip-path">
      <rect id="Rectángulo_400975" data-name="Rectángulo 400975" width="730.585" height="445.27" fill="none"/>
    </clipPath>
    <clipPath id="clip-path-2">
      <path id="Trazado_873039" data-name="Trazado 873039" d="M232.005,178.56c.46,6.688,7.851,13.047,11.652,18.1a8.4,8.4,0,0,1,1.506,2.229c.086-.119.167-.241.258-.358a4.012,4.012,0,0,1,1.265-1.135c1.162-.474,6.205,2.189,7.941,2.46a15.133,15.133,0,0,0,4.476-.248l.786-4.716c-3.945-.762-6.292-1.658-9.19-4.51a11.676,11.676,0,0,1-6.862-1.27c-4.349-2.284-6.2-6.34-7.558-10.793Z" fill="none"/>
    </clipPath>
    <linearGradient id="linear-gradient" x1="-6.501" y1="8.241" x2="-6.472" y2="8.241" gradientUnits="objectBoundingBox">
      <stop offset="0" stop-color="#efdda6"/>
      <stop offset="1" stop-color="#e1c9aa"/>
    </linearGradient>
    <clipPath id="clip-path-4">
      <path id="Trazado_873042" data-name="Trazado 873042" d="M180.7,58.7c4.87,6.329,7.794,13.741,10.034,21.354q1.125,4.221,2.19,8.458a126.383,126.383,0,0,0,1.867-31.243c-.177-2.555-.241-5.384-1.115-7.8l-.538-.358A121.528,121.528,0,0,1,180.7,58.7" fill="none"/>
    </clipPath>
    <linearGradient id="linear-gradient-2" x1="-10.567" y1="9.873" x2="-10.508" y2="9.873" gradientUnits="objectBoundingBox">
      <stop offset="0" stop-color="#735631"/>
      <stop offset="1" stop-color="#8d6b3f"/>
    </linearGradient>
    <clipPath id="clip-path-6">
      <path id="Trazado_873047" data-name="Trazado 873047" d="M74.462,64.161c-.506,3.526-.552,7.282-1.546,10.7-.209-.761-.05-1.715-.533-2.3A19.982,19.982,0,0,0,72.52,76.3c.245,2.741.407,9.843,2.445,11.553,1.288-.228,1.4-2,1.7-3.082a95.257,95.257,0,0,1,16.849-33.8c-2.826-3.819-4.918-8.34-6.935-12.633-9.987,7.492-10.433,14.132-12.114,25.83" fill="none"/>
    </clipPath>
    <linearGradient id="linear-gradient-3" x1="-1.086" y1="8.645" x2="-1.067" y2="8.645" gradientUnits="objectBoundingBox">
      <stop offset="0" stop-color="#74592c"/>
      <stop offset="1" stop-color="#9c6e51"/>
    </linearGradient>
  </defs>
  <g id="Grupo_1098947" data-name="Grupo 1098947" transform="translate(-434.333 -5194.73)">
    <g id="Grupo_1073113" data-name="Grupo 1073113" transform="translate(434.333 5194.73)" clip-path="url(#clip-path)">
      <path id="Trazado_873017" data-name="Trazado 873017" d="M655.388,339.4l-.033-146.766.039-64.755c.007-6.125.766-9.5-.551-14.581q-.113-.445-.247-.885c-.089-.3-.186-.586-.291-.875s-.216-.574-.335-.857-.246-.563-.38-.839-.274-.55-.422-.819-.3-.533-.462-.8-.329-.518-.5-.771-.355-.5-.542-.743-.38-.482-.58-.717-.4-.461-.615-.683-.428-.44-.65-.653-.45-.418-.683-.619-.47-.392-.713-.581-.49-.37-.742-.544-.508-.344-.769-.507-.526-.318-.8-.466a20.09,20.09,0,0,0-9.25-2.234c-11.122-.465-22.428,0-33.576-.029l-218.359-.035-73.89.021c-7.183,0-33.748-.9-39.161.811-.289.09-.575.185-.859.289s-.566.213-.844.331-.554.242-.826.372-.541.271-.806.415-.527.295-.785.454-.511.321-.76.492-.495.349-.735.531-.476.372-.707.568-.457.394-.679.6-.436.417-.646.634-.415.44-.614.667-.392.46-.58.7-.368.479-.543.725-.344.5-.507.751-.319.515-.468.776-.293.529-.429.8a17.154,17.154,0,0,0-1.794,6.092c-.663,6.255-.159,12.959-.131,19.262L259.22,156a16.781,16.781,0,0,0-9.042-3.323c-.677-6.4-.034-15.557-5.587-19.842a10.239,10.239,0,0,0-1.772-1.107,10.184,10.184,0,0,0-.961-.413,10,10,0,0,0-1-.312,9.7,9.7,0,0,0-1.025-.211,10.118,10.118,0,0,0-2.086-.1,10.313,10.313,0,0,0-1.04.106,9.121,9.121,0,0,0-6.14,3.552c-2.48,3.412-2.1,7.791-1.39,11.713.872,4.815,2.427,9.49,3.269,14.3-4.109.651-7.71,2.038-10.268,5.512-3.1,4.2-3.763,10.476-2.9,15.513a23.7,23.7,0,0,0,4.3,10.006c-1.178,2.522-2.217,5.1-3.269,7.677-10.2-15.106-17.457-28.075-36.99-31.9-8.656-1.692-18.174-.963-26.969-.988,0-2.644-.026-5.294.009-7.939a120.557,120.557,0,0,0,13.284-6.592c9.594-5.845,18.476-15.565,22.418-26.18a43.725,43.725,0,0,0,1.616-5.51c4.9-1.525,8.569-3.681,11.069-8.395a18.244,18.244,0,0,0,1.251-13.752c-1.4-4.394-4.17-6.956-8.1-9.06,1.657-15.488,2.332-29.84-.773-45.219,5.885-11.171,7.532-24.823,3.567-37-.362-1.111-1.006-2.853-2.123-3.419a2.22,2.22,0,0,0-1.9-.032c-2.15,3.039-3.175,6.054-6.02,8.615.029-2.979.547-8.139-1.6-10.531A3.37,3.37,0,0,0,186.336,0c-19.947,15.87-64.4-3.395-90.884,16.112A32.562,32.562,0,0,0,83.946,30.384,34.511,34.511,0,0,0,69.328,52.958c-1.974,10.955-1.509,25.137.4,36.092-4.178,2.54-7.036,5.617-8.244,10.5a17.294,17.294,0,0,0,1.857,13.238,15.713,15.713,0,0,0,10.39,6.918c.817.165,1.647.281,2.472.4a57.251,57.251,0,0,0,28.3,34.508q3.683,1.937,7.467,3.659c0,2.561.03,5.128-.014,7.689-5.325.085-10.741.017-16.043.564-12.658,1.3-26.007,5.864-35.049,15.157-8.235,8.465-15.314,18.248-23.847,26.39.836.9,1.651,1.839,2.553,2.67Q33.417,217.49,27.2,224.175c-7.276,7.859-14.109,14.1-13.584,25.643.343,7.546,3.6,13.129,9.129,18.1q16.587,14.729,33.362,29.243c5.652,4.935,11.42,11.378,17.983,15.011-.073,6.346-.044,12.726-.278,19.068-.156,4.222-1.018,8.54-.313,12.75a5.832,5.832,0,0,0,1.874,3.485l-.218,93.234-24.877-.031c-3.191-.006-6.9-.459-10.019-.1a4.234,4.234,0,0,0-2.233.955,2.15,2.15,0,0,0-.663,1.822A2.856,2.856,0,0,0,39.3,444.9c2.962.717,10.449.166,13.805.168l36.2.005,147.457.052a5.141,5.141,0,0,0,3.113-.9,2.821,2.821,0,0,0,.553-1.861,3,3,0,0,0-2.06-1.537c-3.5-.887-8.334-.121-11.986-.116q-16.353-.017-32.705.151-.187-25.906-.09-51.815c.011-14.029-.177-28.084.019-42.109,2.746-4.1,2.214-9.4,1.309-14.027q-.3-1.525-.633-3.045c21.664.07,43.382-.278,65.039.143l.067,9.635c-5.421-.015-26.894-.863-30.183.468a2.359,2.359,0,0,0-.834,1.837,2.2,2.2,0,0,0,.787,1.618c2.642.718,25.42.148,30.337.149-.012,5.95-.9,18.479.363,23.5a14.125,14.125,0,0,0,.6,1.816,14.3,14.3,0,0,0,3.155,4.748,16.415,16.415,0,0,0,11.47,4.844c6.041.364,12.193.138,18.249.144l32.3.014,100.091-.063,193.161.138c6.7.012,17.843.751,23.844-.611a17.067,17.067,0,0,0,10.149-7.628,17.688,17.688,0,0,0,2.529-8.7c.319-7.51-.007-15.164-.024-22.689ZM75.941,265.439l-7.612-7.2q-3.911-3.617-7.945-7.1c5.528-5.631,10.451-12.367,15.377-18.55.517.747.152,29.309.18,32.841m61.987,175.348-6.6-.022-.1-71.186,6.562-.033q.264,35.621.136,71.241M243.519,249.836q7.886-.022,15.771.078l.02,20.1-6.679.039q-8.225.021-16.447-.1c3.126-5.916,5.258-13.708,7.335-20.12m15.888,71.627,0,4.228c-21.721.18-43.465-.106-65.187-.194-.151-22.225-.268-44.553.033-66.777,1.919,2.032,3.293,5.441,4.775,7.871,3.448,5.651,8.646,10.161,15.2,11.672,6.833,1.578,12.251-.35,18.033-3.969,9.009-.223,18.091-.063,27.1.052.231,15.693-.027,31.419.047,47.117m-.114-102.371-.063,26.3q-6.819.153-13.641.1c.16-2.807,1.967-6.4,2.877-9.086,3.377-9.974,6.791-19.893,10.588-29.719.857,3.581.246,8.677.239,12.41" fill="#353535"/>
      <path id="Trazado_873018" data-name="Trazado 873018" d="M618.579,50.276a7.909,7.909,0,0,1,1.619-.142,3.988,3.988,0,0,1,2.914,1.514,3.78,3.78,0,0,1,.772,2.933c-.234,1.64-1.1,2.347-2.385,3.237a11.938,11.938,0,0,1-1.67.055,3.968,3.968,0,0,1-2.788-1.458,3.626,3.626,0,0,1-.807-2.855c.223-1.638,1.083-2.362,2.345-3.284" fill="#bd2f56"/>
      <path id="Trazado_873019" data-name="Trazado 873019" d="M675.45,288.462a9.653,9.653,0,0,1,1.742-.01,4.02,4.02,0,0,1,2.852,1.825,3.824,3.824,0,0,1,.453,2.944,4.991,4.991,0,0,1-2.653,3.086,6.519,6.519,0,0,1-1.813-.088,4.3,4.3,0,0,1-2.644-1.9,4.017,4.017,0,0,1-.4-3.092,4.375,4.375,0,0,1,2.462-2.768" fill="#70266f"/>
      <path id="Trazado_873020" data-name="Trazado 873020" d="M236.885,69.886a10.4,10.4,0,0,1,1.693-.014,4.232,4.232,0,0,1,.448.062,4.117,4.117,0,0,1,.438.108c.144.045.285.1.424.155a4,4,0,0,1,.4.2,4.193,4.193,0,0,1,.737.519q.17.15.324.315a4.358,4.358,0,0,1,.288.348,3.6,3.6,0,0,1,.611,2.962,5.072,5.072,0,0,1-2.656,3.2,7.357,7.357,0,0,1-1.625,0,4.269,4.269,0,0,1-3.032-1.769,3.82,3.82,0,0,1-.56-3.016,4.914,4.914,0,0,1,2.5-3.066" fill="#bd2f56"/>
      <path id="Trazado_873021" data-name="Trazado 873021" d="M3.526,307.856a4.022,4.022,0,0,1,.838.057,4.626,4.626,0,0,1,3.148,2.105,3.991,3.991,0,0,1,.211,3.3c-.561,1.582-1.7,2.179-3.141,2.866a9.808,9.808,0,0,1-1.218-.211A4.374,4.374,0,0,1,.4,313.811a3.734,3.734,0,0,1-.144-3.043c.6-1.618,1.773-2.233,3.271-2.912" fill="#bd2f56"/>
      <path id="Trazado_873022" data-name="Trazado 873022" d="M316.777,1.029a6.253,6.253,0,0,1,2.05.162,4.109,4.109,0,0,1,2.466,2.219,4.126,4.126,0,0,1,.059,3.076c-.585,1.6-1.579,2.169-3.056,2.88a9.63,9.63,0,0,1-1.21-.186,4.579,4.579,0,0,1-3.036-2.2,3.585,3.585,0,0,1-.169-.354c-.05-.12-.094-.243-.132-.368a3.841,3.841,0,0,1-.092-.381,3.583,3.583,0,0,1-.054-.388,3.646,3.646,0,0,1-.012-.391,3.722,3.722,0,0,1,.1-.776,3.838,3.838,0,0,1,.106-.377c.526-1.58,1.57-2.188,2.985-2.918" fill="#bd2f56"/>
      <path id="Trazado_873023" data-name="Trazado 873023" d="M680.483,66.367a7.814,7.814,0,0,1,1.968.147,4.767,4.767,0,0,1,2.877,2.28,4.113,4.113,0,0,1,.334,3.434,4.636,4.636,0,0,1-2.929,2.784,8.638,8.638,0,0,1-1.646-.1,4.746,4.746,0,0,1-3.1-2.037,3.963,3.963,0,0,1-.544-3.065c.391-1.752,1.583-2.574,3.043-3.444" fill="#70266f"/>
      <path id="Trazado_873024" data-name="Trazado 873024" d="M725,333.43a10.565,10.565,0,0,1,1.7.154,5.226,5.226,0,0,1,3.384,2.454,3.962,3.962,0,0,1,.189.388,3.911,3.911,0,0,1,.146.406,3.78,3.78,0,0,1,.1.42,4.12,4.12,0,0,1,.056.427,3.9,3.9,0,0,1,.01.432,4.125,4.125,0,0,1-.035.43,4.014,4.014,0,0,1-.082.424,3.934,3.934,0,0,1-.127.413c-.593,1.589-1.755,2.274-3.2,3a11.263,11.263,0,0,1-1.908-.118,5.337,5.337,0,0,1-3.237-2.057,3.844,3.844,0,0,1-.486-3.217c.5-1.843,1.917-2.7,3.5-3.56" fill="#f4ab5d"/>
      <path id="Trazado_873025" data-name="Trazado 873025" d="M692.658,355.714a9.208,9.208,0,0,1,1.586.309,5.416,5.416,0,0,1,3.415,2.734,4.923,4.923,0,0,1,.493,1.458,4.827,4.827,0,0,1,.06.511,4.628,4.628,0,0,1,.005.514,4.846,4.846,0,0,1-.048.512,4.765,4.765,0,0,1-.1.5,5,5,0,0,1-.155.491c-.647,1.768-1.932,2.554-3.572,3.293a9.55,9.55,0,0,1-2.046-.219,5.486,5.486,0,0,1-3.273-2.49,4.7,4.7,0,0,1-.36-3.926c.673-1.955,2.207-2.881,4-3.692" fill="#f4ab5d"/>
      <path id="Trazado_873026" data-name="Trazado 873026" d="M11.022,132.633a10.33,10.33,0,0,1,3.7.925,8.733,8.733,0,0,1,4.727,5.275,8.947,8.947,0,0,1,.235.867,8.585,8.585,0,0,1,.146.887,8.958,8.958,0,0,1,.054.9,8.657,8.657,0,0,1-.038.9,8.913,8.913,0,0,1-.129.89,8.768,8.768,0,0,1-.528,1.715,8.977,8.977,0,0,1-.392.808c-1.552,2.776-3.889,3.893-6.8,4.727a9.72,9.72,0,0,1-5.415-1.536,8.99,8.99,0,0,1-.746-.538q-.36-.288-.689-.611t-.624-.676a9.18,9.18,0,0,1-1.031-1.523,9.138,9.138,0,0,1-.4-.83q-.177-.426-.312-.866t-.223-.893a8.067,8.067,0,0,1-.115-.819,7.827,7.827,0,0,1-.034-.825q0-.414.05-.825a8.059,8.059,0,0,1,.132-.816q.087-.4.213-.8c.085-.262.182-.52.293-.773s.233-.5.368-.74a8.2,8.2,0,0,1,.44-.7C5.666,134.214,8.125,133.238,11.022,132.633Z" fill="none" stroke="#f4ab5d" stroke-miterlimit="10" stroke-width="3"/>
      <path id="Trazado_873027" data-name="Trazado 873027" d="M702.165,216q-.133-.435-.309-.853a9,9,0,0,0-.392-.816q-.219-.4-.475-.773a9.051,9.051,0,0,0-1.169-1.383,8.988,8.988,0,0,0-.684-.6,8.661,8.661,0,0,0-.74-.523,9.007,9.007,0,0,0-.789-.446,10.408,10.408,0,0,0-5.363-.916c-2.765.827-4.905,1.893-6.327,4.551a9.048,9.048,0,0,0-.384.824c-.114.281-.215.567-.3.858s-.158.586-.215.884-.1.6-.127.9-.038.6-.037.909.02.6.053.907.08.6.142.9.14.59.23.88.192.57.309.847.249.547.394.811a8.5,8.5,0,0,0,.473.767,8.969,8.969,0,0,0,1.169,1.371,8.842,8.842,0,0,0,1.422,1.1,8.783,8.783,0,0,0,.788.439,10.619,10.619,0,0,0,5.193.859c2.734-.741,4.981-1.879,6.428-4.433a8.967,8.967,0,0,0,.711-7.072m-3.938,2.9a3.489,3.489,0,0,1-.062.38,3.682,3.682,0,0,1-.1.371,5.083,5.083,0,0,1-3.051,3.135,14.611,14.611,0,0,1-1.713-.03,4.646,4.646,0,0,1-.511-.082,5.017,5.017,0,0,1-.5-.136,4.53,4.53,0,0,1-.481-.189,4.882,4.882,0,0,1-.459-.24,5.1,5.1,0,0,1-.43-.287,4.835,4.835,0,0,1-1.07-1.115,3.619,3.619,0,0,1-.583-2.858c.323-1.688,1.671-2.6,3.038-3.42a9.609,9.609,0,0,1,2.711.053,4.426,4.426,0,0,1,2.751,2.194,3.8,3.8,0,0,1,.171.344c.05.118.095.238.134.361a3.619,3.619,0,0,1,.1.372,3.728,3.728,0,0,1,.058.379c.012.128.018.256.018.385a3.779,3.779,0,0,1-.02.383" fill="#bd2f56"/>
      <path id="Trazado_873028" data-name="Trazado 873028" d="M226.8,341.593a9.974,9.974,0,0,0-4.839-6.406,11.925,11.925,0,0,0-6.1-1.313c-3.062.7-5.685,1.762-7.423,4.571a10.382,10.382,0,0,0,3.555,14.062,11.392,11.392,0,0,0,6.2,1.336,10.486,10.486,0,0,0,7.375-4.449,9.824,9.824,0,0,0,1.231-7.8m-3.84,2.691a5.411,5.411,0,0,1-.056.539,5.121,5.121,0,0,1-.109.532,5.226,5.226,0,0,1-.162.516,6.406,6.406,0,0,1-3.864,3.6,9.513,9.513,0,0,1-3.028-.108,6,6,0,0,1-3.562-2.688c-.093-.161-.178-.325-.255-.494s-.143-.342-.2-.518a5.441,5.441,0,0,1-.148-.536c-.04-.18-.071-.363-.093-.547a5.421,5.421,0,0,1-.035-.554c0-.186.005-.371.021-.556s.043-.368.078-.55a5.517,5.517,0,0,1,.135-.539c.639-2.124,2.022-3.08,3.893-4.074a8.593,8.593,0,0,1,3.071.167,6.224,6.224,0,0,1,3.779,3.18c.079.162.15.329.213.5s.116.342.161.518a5.048,5.048,0,0,1,.109.531,4.9,4.9,0,0,1,.054.539,5.158,5.158,0,0,1,0,.542" fill="#5bb7b7"/>
      <path id="Trazado_873029" data-name="Trazado 873029" d="M689.526,123.319a11.673,11.673,0,0,1,5.612.785,9.822,9.822,0,0,1,.918.459,9.7,9.7,0,0,1,.868.55,9.992,9.992,0,0,1,3.26,3.9,11.979,11.979,0,0,1,.694,1.935,10.263,10.263,0,0,1,.2,1.011q.077.51.1,1.026c.016.344.015.687,0,1.031s-.055.685-.108,1.025a10.239,10.239,0,0,1-.522,1.992q-.182.484-.41.947a11.349,11.349,0,0,1-7.271,5.847,11.611,11.611,0,0,1-7.089-1.38,10.374,10.374,0,0,1-.884-.568q-.427-.308-.822-.655a10.343,10.343,0,0,1-1.425-1.542,10.193,10.193,0,0,1-.588-.87,10.419,10.419,0,0,1-.5-.926,10.264,10.264,0,0,1-.4-.971,10.052,10.052,0,0,1-.3-1.007,10.286,10.286,0,0,1-.195-1.016c-.048-.342-.078-.685-.092-1.03s-.01-.69.011-1.035.06-.687.115-1.028a10.192,10.192,0,0,1,.216-1.011q.133-.5.317-.986t.412-.948q.231-.464.506-.9c1.764-2.759,4.271-3.959,7.373-4.628" fill="#5bb7b7"/>
      <path id="Trazado_873030" data-name="Trazado 873030" d="M699.741,326.572a10.2,10.2,0,0,0-.2-1.01,10.014,10.014,0,0,0-.306-.985q-.17-.484-.388-.951a10.131,10.131,0,0,0-1.059-1.756,9.932,9.932,0,0,0-.659-.788,10.12,10.12,0,0,0-.736-.715q-.387-.339-.806-.637a9.93,9.93,0,0,0-.868-.55,9.717,9.717,0,0,0-.919-.458,11.67,11.67,0,0,0-5.611-.786c-3.1.669-5.609,1.869-7.373,4.629a10.211,10.211,0,0,0-.506.9q-.23.464-.413.948a10.337,10.337,0,0,0-.532,2,10.334,10.334,0,0,0-.034,3.092q.072.513.194,1.017t.3,1.007q.177.5.4.971a10.517,10.517,0,0,0,1.086,1.8q.316.42.673.807a10.415,10.415,0,0,0,.752.734,10.387,10.387,0,0,0,1.705,1.223,11.608,11.608,0,0,0,7.09,1.381,11.351,11.351,0,0,0,7.271-5.848,10.248,10.248,0,0,0,.409-.946,10,10,0,0,0,.312-.983,10.226,10.226,0,0,0,.21-1.009,9.815,9.815,0,0,0,.108-1.026,10.214,10.214,0,0,0-.1-2.057M695.29,328.7a6.1,6.1,0,0,1-.086.615c-.039.2-.089.4-.148.6-.631,2.116-1.933,3.058-3.8,4.062a8,8,0,0,1-2.85.019,5.592,5.592,0,0,1-3.591-2.425,6.226,6.226,0,0,1-.667-4.807c.565-2.23,1.841-3.265,3.734-4.412a9.261,9.261,0,0,1,3.207.091,5.874,5.874,0,0,1,3.4,2.673,6.009,6.009,0,0,1,.284.552,5.63,5.63,0,0,1,.226.578,5.888,5.888,0,0,1,.166.6,5.744,5.744,0,0,1,.1.612,6.019,6.019,0,0,1,.018,1.24" fill="#5bb7b7"/>
      <path id="Trazado_873031" data-name="Trazado 873031" d="M361.2,44.785a15.192,15.192,0,0,1,8.27,1.381,12.554,12.554,0,0,1,6.222,7.538c.07.224.135.45.193.677s.113.456.16.685.089.461.125.693.067.465.092.7.043.467.056.7.021.469.022.7,0,.469-.013.7-.026.469-.048.7-.049.467-.082.7-.073.464-.118.694-.1.46-.151.688-.118.453-.185.679-.14.448-.219.669-.162.44-.251.657-.184.432-.284.644-.2.422-.315.63c-2.079,3.848-5.333,5.718-9.406,6.834a13.581,13.581,0,0,1-9.648-1.959c-.187-.122-.372-.249-.553-.38s-.359-.268-.533-.409-.345-.285-.512-.434-.33-.3-.489-.459-.315-.318-.467-.483-.3-.333-.441-.5-.283-.348-.417-.527-.264-.361-.389-.547-.246-.373-.362-.565-.227-.385-.333-.582-.208-.4-.3-.6-.188-.406-.274-.613-.167-.415-.243-.626-.146-.423-.211-.637-.126-.429-.18-.647-.1-.435-.148-.654A14.041,14.041,0,0,1,351.92,50.2C354.166,46.982,357.468,45.5,361.2,44.785Z" fill="none" stroke="#f4ab5d" stroke-miterlimit="10" stroke-width="5"/>
      <path id="Trazado_873032" data-name="Trazado 873032" d="M37.971,373.26q-.066-.316-.147-.628t-.178-.621q-.1-.307-.208-.61t-.238-.6q-.126-.3-.268-.587c-.094-.194-.192-.385-.3-.573s-.211-.374-.324-.558-.23-.363-.351-.54-.247-.352-.378-.524-.264-.338-.4-.5-.281-.325-.427-.483-.3-.311-.451-.461-.312-.3-.474-.439-.325-.28-.493-.414-.34-.263-.515-.389-.352-.247-.533-.364a14.017,14.017,0,0,0-8.813-2.088c-4.061.743-7.587,2.324-10,5.847a14,14,0,0,0-1.969,10.432q.061.32.139.636t.172.628c.062.207.13.414.2.618s.151.407.234.607.172.4.265.6.191.389.294.58.211.379.323.565.23.368.352.548.248.355.379.529.266.342.4.509.283.329.431.488.3.314.454.466.315.3.478.442.329.282.5.417.344.265.52.391.356.248.539.365a15.813,15.813,0,0,0,9.046,2.347c4.138-.8,7.449-2.207,9.866-5.877a14.271,14.271,0,0,0,1.862-10.752m-4.1,3.57a8.521,8.521,0,0,1-.117.9,8.921,8.921,0,0,1-.21.883,8.673,8.673,0,0,1-.3.855,8.909,8.909,0,0,1-.39.82,8.748,8.748,0,0,1-.473.774c-1.683,2.458-4,3.441-6.82,4.026a9.55,9.55,0,0,1-5.833-1.388,8.232,8.232,0,0,1-.714-.52,8.383,8.383,0,0,1-2.2-2.735,8.249,8.249,0,0,1-.624-1.651,8.187,8.187,0,0,1-.178-.865,8.888,8.888,0,0,1-.095-.906c-.015-.3-.016-.608,0-.912a8.9,8.9,0,0,1,.092-.907,8.858,8.858,0,0,1,.457-1.763,8.832,8.832,0,0,1,.361-.837,8.942,8.942,0,0,1,.967-1.543c1.721-2.191,3.848-3.009,6.532-3.4a10.98,10.98,0,0,1,5.313,1.22,7.863,7.863,0,0,1,.721.447,8.243,8.243,0,0,1,.672.52q.321.277.614.586a8.27,8.27,0,0,1,.551.646,8.171,8.171,0,0,1,.48.7,8.262,8.262,0,0,1,.733,1.529,8.258,8.258,0,0,1,.245.813,8.75,8.75,0,0,1,.167.892,8.538,8.538,0,0,1,.074.9,8.852,8.852,0,0,1-.022.907" fill="#f4ab5d"/>
      <path id="Trazado_873033" data-name="Trazado 873033" d="M85.132,35.106l1.444,3.225c-9.987,7.492-10.433,14.132-12.113,25.83-.507,3.526-.553,7.282-1.547,10.7-.209-.76-.05-1.714-.533-2.3a99.267,99.267,0,0,1,.643-15.465c1.221-9.064,4.74-16.387,12.106-21.988" fill="#a88365"/>
      <path id="Trazado_873034" data-name="Trazado 873034" d="M173.463,340.432a156.852,156.852,0,0,0,18.076-2.561c-.047,1.427.157,3.8-.893,4.885-2.448,2.521-16.15,3.492-19.726,3.938a63.076,63.076,0,0,1,2.543-6.262" fill="#801d38"/>
      <path id="Trazado_873035" data-name="Trazado 873035" d="M193.57,92.063A12.275,12.275,0,0,1,198.21,94a11.273,11.273,0,0,1,4.273,8.039,13.292,13.292,0,0,1-3.4,10.048,17.431,17.431,0,0,1-4.8,3.31c.529-7.8-.11-15.56-.708-23.336" fill="#f2dcbf"/>
      <path id="Trazado_873036" data-name="Trazado 873036" d="M74.34,92.643l.3.036c.753,1.294-.205,8.16-.17,10.194.069,4.016.547,8.1.872,12.107l-.592.326a10.843,10.843,0,0,1-9.356-9.17,12.685,12.685,0,0,1,2.147-9.57,9.483,9.483,0,0,1,6.8-3.923" fill="#f2dcbf"/>
      <path id="Trazado_873037" data-name="Trazado 873037" d="M208.719,228.8c-.121,2.013-1.531,4.613-2.276,6.529-2.959,7.614-7.071,15.737-7.995,23.877l-1.281-2.759c-3.31-6.668-3.453-8.386-3.351-15.7q7.7-5.661,14.9-11.951" fill="#f2dcbf"/>
      <path id="Trazado_873038" data-name="Trazado 873038" d="M122.633,161.309a62.233,62.233,0,0,0,29.457-1.92c.033,3.342.7,7.987-1.925,10.524-.095.092-.2.171-.3.257-1.365-1.083-6.474-.4-8.473-.6-5.3-.532-15.364-4.052-18.756-8.259" fill="#e9c3a0"/>
    </g>
    <g id="Grupo_1073115" data-name="Grupo 1073115" transform="translate(434.333 5194.73)" clip-path="url(#clip-path-2)">
      <rect id="Rectángulo_400976" data-name="Rectángulo 400976" width="35.132" height="33.076" transform="translate(222.35 184.176) rotate(-31.248)" fill="url(#linear-gradient)"/>
    </g>
    <g id="Grupo_1073117" data-name="Grupo 1073117" transform="translate(434.333 5194.73)" clip-path="url(#clip-path)">
      <path id="Trazado_873040" data-name="Trazado 873040" d="M237.289,135a7.266,7.266,0,0,1,4.589,1.066c4.1,3.016,3.287,12.053,4.2,16.7l.077.37a26.574,26.574,0,0,0-5.967,4.132,38.854,38.854,0,0,1-3,2.719c-1.9-4.562-5.535-17.58-3.7-21.93.722-1.712,2.174-2.381,3.8-3.054" fill="#f2dcbf"/>
      <path id="Trazado_873041" data-name="Trazado 873041" d="M56.047,226.015c3.873,3.351,7.71,6.763,11.685,9.992L57.021,248.382a142.689,142.689,0,0,0-12.151-9.325c2.549-4.982,7.741-8.655,11.177-13.042" fill="#e9c3a0"/>
    </g>
    <g id="Grupo_1073119" data-name="Grupo 1073119" transform="translate(434.333 5194.73)" clip-path="url(#clip-path-4)">
      <rect id="Rectángulo_400978" data-name="Rectángulo 400978" width="16.998" height="40.168" transform="translate(178.509 49.225) rotate(-3.186)" fill="url(#linear-gradient-2)"/>
    </g>
    <g id="Grupo_1073121" data-name="Grupo 1073121" transform="translate(434.333 5194.73)" clip-path="url(#clip-path)">
      <path id="Trazado_873043" data-name="Trazado 873043" d="M74.5,281.188c-1.766-2.54-4.588-4.732-6.652-7.089-3.521-4.02-23.913-29.17-24.878-32.569.2-.969.208-.889,1.039-1.445,3.962,4.574,31.389,31.941,35.423,32.72.611.338,1.209.679,1.8,1.054a54.639,54.639,0,0,0-6.73,7.329" fill="#e9c3a0"/>
      <path id="Trazado_873044" data-name="Trazado 873044" d="M116.231,159.473c2.09.729,4.267,1.255,6.4,1.837,3.392,4.207,13.454,7.727,18.756,8.259,2,.2,7.107-.481,8.473.6a24.926,24.926,0,0,1-3.566,3.041,21.178,21.178,0,0,1-15.925,3.769,21.687,21.687,0,0,1-14.364-9.168c.171-2.766.155-5.567.223-8.339" fill="#f2dcbf"/>
      <path id="Trazado_873045" data-name="Trazado 873045" d="M186.385,5.453l-.145,3.28-.5.169c-1.661.571-3.168,1.625-4.8,2.3a59.65,59.65,0,0,1-14.835,3.49c-10.892,1.4-22.151.785-33.114.88-5.938.051-12-.088-17.805,1.36A52.036,52.036,0,0,0,95.374,27.361c-2.617,2.167-4.047,5.088-6.344,7.475a6.454,6.454,0,0,1-.292-4.009c.9-3.236,4.056-6.572,6.485-8.8,23.727-21.764,64-1.894,91.162-16.573" fill="#a88365"/>
      <path id="Trazado_873046" data-name="Trazado 873046" d="M249.554,157.073q.72.021,1.438.079a10.591,10.591,0,0,1,5.419,1.768c2.267,1.878,1.995,5.313,3.808,7.523,2.511,3.062,6.752,3.924,9.306,7.182a8.036,8.036,0,0,1,1.779,5.067c-1.12-.43-1.551-.982-2.791-.927-1.338,1.053-1.39,2.954-1.966,4.462a15.311,15.311,0,0,1-8.377,8.448,22.33,22.33,0,0,1-4-2q.876-.665,1.71-1.38c2.315-2,7.543-8.826,7.372-11.943a2.172,2.172,0,0,0-.847-1.765,3.294,3.294,0,0,0-1.977-.328c-1.5,1.716-2.14,4.385-3.382,6.382l-.245.389a31.658,31.658,0,0,1-3.128,3.822,10.235,10.235,0,0,1-6.16,2.411c-.7-.02-.705-.022-1.217-.537l.139-.642a36.871,36.871,0,0,0,4.044-5.1c2.139-3.222,5.242-9.006,4.451-12.928-.544-.672-.663-.914-1.6-.956a4.583,4.583,0,0,0-.73.126,2.322,2.322,0,0,0-.606.152c-.588.324-1.359,4.045-1.68,4.956a31.339,31.339,0,0,1-7.856,11.6,52.108,52.108,0,0,1-1.427-5.568,20.239,20.239,0,0,0,2.111-1.587,11.355,11.355,0,0,0,4.007-8.047c.083-3.293-1.487-5.633-3.68-7.887a16.017,16.017,0,0,1,6.084-2.766" fill="#f2dcbf"/>
    </g>
    <g id="Grupo_1073123" data-name="Grupo 1073123" transform="translate(434.333 5194.73)" clip-path="url(#clip-path-6)">
      <rect id="Rectángulo_400980" data-name="Rectángulo 400980" width="52.261" height="46.929" transform="matrix(0.606, -0.795, 0.795, 0.606, 48.381, 69.636)" fill="url(#linear-gradient-3)"/>
    </g>
    <g id="Grupo_1073125" data-name="Grupo 1073125" transform="translate(434.333 5194.73)" clip-path="url(#clip-path)">
      <path id="Trazado_873048" data-name="Trazado 873048" d="M77.3,338.134c14.646,3.026,29.811,3.186,44.706,3.424,17.157.273,34.341.246,51.455-1.126a63,63,0,0,0-2.543,6.263c-5.976,1.172-12.854.8-18.966.928q-16.848.3-33.695-.119c-13.73-.275-27.287-.633-40.828-3.132-.144-2.079-.128-4.155-.129-6.238" fill="#942342"/>
      <path id="Trazado_873049" data-name="Trazado 873049" d="M249.626,203.043a51.514,51.514,0,0,0,5.552,1.6L239.927,247.6c-2.146,6.02-4.206,14.134-7.309,19.552a14.441,14.441,0,0,1-6.1,5.565,16.7,16.7,0,0,1-12.847.819,16.042,16.042,0,0,1-8.51-7.025c4.988,1.417,9.956,2.85,15.075,1.034a14.408,14.408,0,0,0,7.7-6.263c2.937-4.91,4.715-13.2,6.614-18.754,4.532-13.242,9.054-26.835,15.074-39.481" fill="#e9c3a0"/>
      <path id="Trazado_873050" data-name="Trazado 873050" d="M96.01,46.407c2.158.2,10.064,3.873,12.821,4.73,17.027,5.3,36.573,7.531,53.925,2.629,13.157-3.716,24.279-12.056,30.556-24.325,1.77-3.459,2.665-7.511,4.578-10.82.044-.075.09-.15.135-.225,1.575,7.444-.916,16.979-5.006,23.3C186.147,52.3,173.252,58.314,161.253,60.8c-16.1,3.332-33.2,1.195-48.57-4.32a56.606,56.606,0,0,1-12.417-5.813,14.184,14.184,0,0,1-4.057-3.971Z" fill="#735638"/>
      <path id="Trazado_873051" data-name="Trazado 873051" d="M87.993,274.475c.206-.017.412-.037.619-.052,6.578-.472,15.2,3.32,20,7.725a5.813,5.813,0,0,1,1.868,4.5,3.543,3.543,0,0,1-.864,2.772,2.629,2.629,0,0,1-.817.122c-1.278-.219-10.315-6.688-13.593-7.972a6.777,6.777,0,0,0-5.112-.335c-.513,2.161,16.934,9.469,19.655,15.266a3.7,3.7,0,0,1,.129,3.144,2.612,2.612,0,0,1-1.744,1.567c-3.95.883-16.027-7.8-19.855-9.841a3.37,3.37,0,0,0-2.789-.6c-.555.654-.409.543-.358,1.33,1.214,1.927,11.46,8.111,13.954,9.705l4.777,2.814a13.991,13.991,0,0,1-.914,2.184c-.054.1-.113.188-.176.278s-.132.176-.2.258a3.013,3.013,0,0,1-.229.237,3.161,3.161,0,0,1-.251.212,3.1,3.1,0,0,1-.271.186c-.094.057-.191.11-.289.157s-.2.09-.3.128-.208.068-.315.1c-4.738,1.206-14.425-6.319-18.572-8.806-1.22-.732-2.666-1.646-4.1-1.281l-.067.707c2.864,5.533,12.708,9.313,17.56,13.2l0,.889a5.288,5.288,0,0,1-1.449,2.011,4.563,4.563,0,0,1-3.332.638c-3.916-.488-14.689-7-17.845-9.468a20.576,20.576,0,0,1-3.555-3.644,12.834,12.834,0,0,1,.81-7.2c2.552-6.5,11.19-18.147,17.646-20.928" fill="#e9c3a0"/>
      <path id="Trazado_873052" data-name="Trazado 873052" d="M172.768,351.2a146.432,146.432,0,0,0,16.6-2.749l.165,61.912.033,18.53a99.458,99.458,0,0,1-.211,11.233c-1.881,1.558-13.152.865-16.263.84.12-8.884-.128-17.791-.164-26.677Z" fill="#48938f"/>
      <path id="Trazado_873053" data-name="Trazado 873053" d="M42.392,213.871q6.9,5.986,13.654,12.145c-3.435,4.387-8.627,8.059-11.176,13.042l-.862,1.027c-.831.556-.836.476-1.039,1.445.965,3.4,21.358,28.549,24.878,32.57,2.064,2.356,4.887,4.548,6.653,7.088-4.2,5.646-9,11.153-9.167,18.508l-22.091-19.43c-5.857-5.087-11.924-10.046-17.577-15.355-4.636-4.354-7.73-9.274-7.9-15.782a20.229,20.229,0,0,1,2.3-9.913c2.444-4.559,6.755-8.508,10.24-12.292q6.006-6.564,12.093-13.053" fill="#f2dcbf"/>
      <path id="Trazado_873054" data-name="Trazado 873054" d="M228.35,191.608c-2.769-4.3-5.056-8.809-5.161-14.041-.073-3.64.951-7.5,3.6-10.125s7.977-4.032,11.689-3.9a4.731,4.731,0,0,1,3.681,1.506,5.92,5.92,0,0,1,.62,4.6c-1.107,4.582-7.3,3.966-10.552,5.992-.527.972-.282,1.831-.218,2.921.46,6.688,7.851,13.046,11.652,18.1a8.411,8.411,0,0,1,1.505,2.229,9.039,9.039,0,0,0,4.464,4.156c-6.02,12.646-10.542,26.239-15.074,39.48-1.9,5.551-3.677,13.845-6.615,18.754a14.408,14.408,0,0,1-7.7,6.264c-5.119,1.815-10.087.382-15.076-1.035a14.487,14.487,0,0,1-.842-1.715,14.111,14.111,0,0,1-1.026-7.541c1.061-6.754,4.994-14.918,7.493-21.418,5.685-14.779,11.447-29.621,17.562-44.225" fill="#f2dcbf"/>
      <path id="Trazado_873055" data-name="Trazado 873055" d="M79.433,349.1c6.27.951,12.5,1.8,18.832,2.23a9.566,9.566,0,0,1,2.243.635c3.214,1.763,7.3,2.521,10.719,3.976.023,7.534.433,83.583-.209,84.478a20.416,20.416,0,0,1-2.775.256,92.191,92.191,0,0,1-9.921.078q-9.5.04-18.99-.177c-.51-30.466.158-61,.1-91.476" fill="#5bb7b7"/>
      <path id="Trazado_873056" data-name="Trazado 873056" d="M186.24,8.733c-.565,6.232-5.42,8.9-5.819,11.5.581.482.527.383,1.222.425a26.155,26.155,0,0,0,14.3-8.5c.339-.391.456-.348.939-.484l.506.8a40.62,40.62,0,0,0,.637,5.926c-.045.075-.092.149-.136.225-1.913,3.309-2.807,7.361-4.577,10.82-6.278,12.269-17.4,20.608-30.556,24.325-17.352,4.9-36.9,2.667-53.926-2.629-2.757-.857-10.663-4.527-12.821-4.73-2.648-2.807-5.281-8.126-6.979-11.571,2.3-2.388,3.727-5.309,6.343-7.475a52.023,52.023,0,0,1,19.812-10.427c5.8-1.448,11.868-1.309,17.805-1.361,10.964-.1,22.222.515,33.114-.879A59.684,59.684,0,0,0,180.94,11.2c1.631-.677,3.137-1.731,4.8-2.3Z" fill="#906a52"/>
      <path id="Trazado_873057" data-name="Trazado 873057" d="M181.643,20.662a26.155,26.155,0,0,0,14.3-8.5c.34-.391.456-.348.939-.484l.506.8c-.207,1.971-2,3.345-3.46,4.549-2.507,2.064-7.828,5.227-11.089,4.651-.609-.108-.882-.529-1.2-1.008" fill="#a88365"/>
      <path id="Trazado_873058" data-name="Trazado 873058" d="M126.973,352.058c4.685-.487,9.885-.107,14.616-.122,10.419-.033,20.778-.041,31.178-.74l.161,63.088c.036,8.887.284,17.794.164,26.678l-11.51,0-19.645-.027.022-71.514a28.632,28.632,0,0,0,6.573-3.749c1.278-1.008,3.261-2.711,3.267-4.49a2.383,2.383,0,0,0-.995-1.759c-1.642-.312-7.324,5.116-11.232,5.828-3.026.552-12.09.431-14.794-.739-1.684-.73-3.337-2.7-4.865-3.8a2.249,2.249,0,0,0-1.476.1,2.644,2.644,0,0,0-1.666,1.6,1.918,1.918,0,0,0,.312,1.532c1.991,3.115,6.69,4.932,10.109,5.673q.171,22.2.106,44.4c-.007,8.879.153,17.8-.137,26.67a126.019,126.019,0,0,1-18.918,0,20.243,20.243,0,0,0,2.774-.257c.642-.894.233-76.943.209-84.477-3.415-1.456-7.5-2.214-10.718-3.976a9.58,9.58,0,0,0-2.243-.635c4.8-.023,9.6.357,14.4.487,4.768.13,9.55.031,14.313.242" fill="#52a8a5"/>
      <path id="Trazado_873059" data-name="Trazado 873059" d="M126.973,352.058c4.685-.487,9.885-.107,14.616-.122,10.419-.033,20.778-.041,31.178-.74l.161,63.088c.036,8.887.284,17.794.164,26.678l-11.51,0c.332-24.016.149-48.107-.017-72.127-.039-5.525-.427-11.028-.411-16.553-4.379-.129-32.084.954-34.181-.221" fill="#5ebfbc"/>
      <path id="Trazado_873060" data-name="Trazado 873060" d="M97.359,54.218a50.415,50.415,0,0,0,8.107,4.053c23.171,10.062,47.463,11.78,71.23,2.413q.489.662.95,1.34c10.385,15.3,14.981,38.914,11.333,57.133-2.5,12.489-11.132,21.558-21.457,28.386-9.3,5.684-20.292,9.643-31.228,10.3-14.1.841-29.752-5.08-40.228-14.438-9.949-8.886-15.906-19.917-16.644-33.289C78.3,89.851,83.65,69.6,97.359,54.218" fill="#f2dcbf"/>
      <path id="Trazado_873061" data-name="Trazado 873061" d="M135.037,109.573a6.663,6.663,0,0,1,4.464.329,4.276,4.276,0,0,1,2.14,2.8,5.18,5.18,0,0,1-.99,4.148c-1.227,1.651-2.788,2.117-4.728,2.473a14.493,14.493,0,0,1-2.388-1.082c.2,0,.4.007.607.006a7.42,7.42,0,0,0,5.271-1.991,2.98,2.98,0,0,0,.115-2.318c-.883-2.415-2.377-3.207-4.491-4.364" fill="#70266f"/>
      <path id="Trazado_873062" data-name="Trazado 873062" d="M107.359,83.122a31.121,31.121,0,0,1,3.142.229c2.6.368,5.643.949,7.307,3.14.16.873.18.806-.321,1.538-2.43,1.009-6.388-.91-9.074-1.153l-.514-.044c-.081,0-.163.01-.245.017-.135.011-.27.027-.406.039-2.919.265-5.43,1.568-8.274,1.884a3.614,3.614,0,0,1-1.189-1.151c-.307-.511-.124-.629.027-1.163,2.353-2.42,6.329-3.143,9.547-3.336" fill="#2f0b16"/>
      <path id="Trazado_873063" data-name="Trazado 873063" d="M158.852,83.416c3.768-.391,7.857.017,11.124,2.068a5.185,5.185,0,0,1,2.614,3.085c-.231.446-.181.624-.7.778-1.587.465-3.235-.682-4.613-1.372-6.153-1.849-8.8.189-14.293-.052l-.49-.709c-.024-.562-.142-.8.191-1.295,1.242-1.847,4.123-2.2,6.17-2.5" fill="#2f0b16"/>
      <path id="Trazado_873064" data-name="Trazado 873064" d="M159.751,92.643a9.48,9.48,0,0,1,4.836.679,7.971,7.971,0,0,1,4.259,4.825,10.249,10.249,0,0,1,.448,2.036,10.292,10.292,0,0,1,.028,2.086,10.269,10.269,0,0,1-.145,1.033,10.305,10.305,0,0,1-1.05,2.94c-1.569,2.914-3.865,4.132-6.921,4.97a10.068,10.068,0,0,1-5.8-1.48,9.108,9.108,0,0,1-2.677-2.574q-.263-.387-.486-.8t-.4-.844a9.17,9.17,0,0,1-.535-1.788,9.488,9.488,0,0,1,1.537-7.01c1.71-2.488,4.032-3.515,6.906-4.075" fill="#2f0b16"/>
      <path id="Trazado_873065" data-name="Trazado 873065" d="M162.934,95.454c.1.024.21.043.313.072a4.2,4.2,0,0,1,2.937,2.212,2.814,2.814,0,0,1,0,2.415c-.617,1.277-1.715,1.593-2.972,1.934a8.219,8.219,0,0,1-1.113-.225,3.006,3.006,0,0,1-.355-.128,3.266,3.266,0,0,1-.651-.376,3.178,3.178,0,0,1-.287-.243,3.055,3.055,0,0,1-.257-.277,3.153,3.153,0,0,1-.222-.3,2.928,2.928,0,0,1-.184-.328,3.4,3.4,0,0,1-.145-.348,2.988,2.988,0,0,1,.186-2.3,4.1,4.1,0,0,1,2.75-2.1" fill="#fefefe"/>
      <path id="Trazado_873066" data-name="Trazado 873066" d="M105.921,92.3a12.226,12.226,0,0,1,6.149.763q.435.193.847.428t.8.51q.387.274.745.586a9.564,9.564,0,0,1,1.3,1.378q.291.375.543.778t.463.828a9.451,9.451,0,0,1,.379.87,8.917,8.917,0,0,1-5.8,11.906,9.877,9.877,0,0,1-1.413.295,9.954,9.954,0,0,1-4.285-.361,8.739,8.739,0,0,1-.873-.33,9.015,9.015,0,0,1-.834-.418,8.914,8.914,0,0,1-2.178-1.742,8.674,8.674,0,0,1-.591-.721,9.11,9.11,0,0,1-.514-.779,8.9,8.9,0,0,1-.429-.829q-.2-.426-.352-.869t-.265-.9c-.073-.3-.132-.611-.175-.921s-.072-.621-.085-.934-.01-.625.009-.937.051-.623.1-.932a9.566,9.566,0,0,1,.471-1.813c1.136-3.007,3.2-4.539,5.991-5.857" fill="#2f0b16"/>
      <path id="Trazado_873067" data-name="Trazado 873067" d="M106.134,95.7c1.331.081,2.514.179,3.392,1.322a2.873,2.873,0,0,1,.506,2.356,4.26,4.26,0,0,1-2.333,2.788,3.691,3.691,0,0,1-3.013-1.295,3.075,3.075,0,0,1-.581-2.7,3.828,3.828,0,0,1,2.029-2.472" fill="#fefefe"/>
      <path id="Trazado_873068" data-name="Trazado 873068" d="M116.02,125.65a126.053,126.053,0,0,0,38.557.349,18.265,18.265,0,0,1-4.551,11.84,21.563,21.563,0,0,1-14.794,5.694,20.236,20.236,0,0,1-14.714-5.77c-3.351-3.456-4.518-7.413-4.5-12.113" fill="#2f0b16"/>
      <path id="Trazado_873069" data-name="Trazado 873069" d="M118.286,128.527c3.864.211,7.711,1.013,11.593,1.247a113.117,113.117,0,0,0,22.54-1.292,19.312,19.312,0,0,1-3.908,7.459q-.434.426-.9.821t-.951.757c-.325.242-.659.471-1,.69s-.69.425-1.045.619-.718.377-1.086.547-.742.326-1.121.47-.761.275-1.149.393-.78.222-1.175.312a20.053,20.053,0,0,1-15.244-2.251,15.009,15.009,0,0,1-6.558-9.772" fill="#fefefe"/>
      <path id="Trazado_873070" data-name="Trazado 873070" d="M42.53,208.452c4.358-5.358,8.9-10.5,13.535-15.619a120.7,120.7,0,0,1,9.273-9.713c8.805-7.767,20.493-11.55,32.02-12.726a114.606,114.606,0,0,1,15.681-.322c4.184,5.849,9.166,9.611,16.382,10.83A26.187,26.187,0,0,0,149,176.682a22.311,22.311,0,0,0,1.794-1.405,22.25,22.25,0,0,0,3.108-3.326,22.29,22.29,0,0,0,1.281-1.884c18.156-.024,33.383-1.929,47.329,12.031a67.579,67.579,0,0,1,10.937,14.752c1.493,2.664,2.8,5.553,4.51,8.074-4,11.511-5.779,15.755-15.39,23.656a93.949,93.949,0,0,1-8.921,6.794c-.116-10.517-.391-21.1-1.293-31.577a69.263,69.263,0,0,0-1.38,10.626c-1.326,14.768-.89,29.7-.89,44.515q-.231,37.4.225,74.806c-15.278,3.568-31.838,3.456-47.463,3.615-21.921.223-43.428.2-65.147-3.161,0-6.726.073-13.4.4-20.117,4.6,2.315,11.449,6.977,16.745,5.134,2.98-1.037,4.57-3.522,5.963-6.165a9.955,9.955,0,0,0,6.223-5c.406-.743.737-1.543,1.074-2.319a7.988,7.988,0,0,0,4.907-4.01,8.194,8.194,0,0,0,.214-6.433,18.4,18.4,0,0,0-1.447-2.575c1.794-2.3,3.209-4.553,2.889-7.617-.337-3.214-2.559-5.809-5.032-7.7-5.47-4.186-14.52-7.821-21.52-6.763-2.507.379-4.76,1.915-6.881,3.226-.589-.374-1.188-.716-1.8-1.053,1.15-3.538.482-18.288.486-22.727.014-18.9.7-39.816-.761-58.508-.051-.64-.339-1.209.24-1.573l-.428-.523c0,.39.1.7-.139,1.017-.856,11.22-.356,22.473-.975,33.678q-3.591,4.447-7.289,8.807c-9.294-8.1-19.214-15.939-28.036-24.525" fill="#bd2f56"/>
      <path id="Trazado_873071" data-name="Trazado 873071" d="M275.2,104.113q1.458-.062,2.917-.067l149.371-.008,190.505-.012c6.869,0,15.369-.614,22.023.2a12.338,12.338,0,0,1,7.2,3.848,13.6,13.6,0,0,1,3.871,8.48c.375,4.04.164,8.21.161,12.271l-.018,6.463,0,68.3.024,144c.135,18.013.135-6.977,0,11.035-.053,4.431-.811,9.012-4.205,12.192-5.289,4.957-13.569,3.806-20.221,3.742l-292.4-.157c-19.456-.047-39.006.458-58.45.074-3.867-.076-6.743-.932-9.435-3.843a9.824,9.824,0,0,1-2.774-6.046c-.79-9.1-.148-20.076-.128-29.359l.054-13.8-.215-88.028c-.005-13.063-.319-26.207.08-39.259a18.724,18.724,0,0,0,10.336-8.114q.168-.3.321-.606c.1-.205.2-.412.291-.622s.178-.421.259-.635.156-.43.226-.649.134-.437.192-.658.112-.444.16-.667.089-.45.125-.675.066-.453.091-.681.042-.455.056-.684.019-.457.021-.686,0-.457-.014-.686-.026-.457-.048-.685-.05-.454-.083-.681-.073-.452-.118-.676-.1-.448-.151-.669-.118-.443-.185-.661c-1.759-5.658-6.285-8.588-11.217-11.186-.563-3.392-.345-7.1-.356-10.534l-.028-17.023L263.4,129.2c-.006-4-.2-8.085.087-12.065a13.712,13.712,0,0,1,1.5-6.05c2.319-3.955,5.89-5.906,10.211-6.967" fill="#fefefe"/>
      <path id="Trazado_873072" data-name="Trazado 873072" d="M629.044,306.938c2.181-.077,4.574-.413,6.48.91a2.311,2.311,0,0,1,1.1,1.709,1.319,1.319,0,0,1-.3.6,4.371,4.371,0,0,1-2.257,1.125c-3.772.845-10.941.209-15.144.207l-179.545.039-151.649.247a27.419,27.419,0,0,1-5.49-.066,5.294,5.294,0,0,1-3.548-2c-.018-.5-.134-.612.225-1.018a2.5,2.5,0,0,1,.956-.743,8.665,8.665,0,0,1,3.613-.78c7.109-.3,14.333-.052,21.452-.058l41.46-.033Z" fill="#cdc0bf"/>
      <path id="Trazado_873073" data-name="Trazado 873073" d="M354.273,168.833c27.449-.174,54.881.382,82.326.473l181.61.067c4.9.006,9.854-.26,14.739-.1a5.263,5.263,0,0,1,2.716.627,2.443,2.443,0,0,1,.688,1.942,2.777,2.777,0,0,1-.867,1.662,4.554,4.554,0,0,1-2.428.477c-6.986.142-14.029-.192-21.022-.235-17.2-.2-179.426-.3-196.624-.285l-95.643.141-26.378-.028c-4.349.019-9.489.607-13.736-.076a2.467,2.467,0,0,1-1.777-1.2,2.663,2.663,0,0,1,.085-1.878,5.567,5.567,0,0,1,3.5-1.4c5.855-.658,15.93-.015,22.157-.03Z" fill="#cdc0bf"/>
      <path id="Trazado_873074" data-name="Trazado 873074" d="M279.715,237.193c9.051-.66,18.482-.062,27.569-.014l51.353.108,240.566-.062,23.128-.009c4.1,0,8.992-.514,12.961.394.7.579.922.719,1.045,1.684a3.242,3.242,0,0,1-.925,2.4c-5.73.652-11.873.194-17.641.185l-175.914.089L331.7,241.882c-4.677-.01-49.341.582-51.653-.524a1.537,1.537,0,0,1-.935-.929,3.806,3.806,0,0,1,.608-3.236" fill="#cdc0bf"/>
    </g>
    <path id="Trazado_874480" data-name="Trazado 874480" d="M1.074,21V6.781h4.58a6.737,6.737,0,0,1,3.389.854,6.006,6.006,0,0,1,2.349,2.412,7.283,7.283,0,0,1,.854,3.491v.654a7.325,7.325,0,0,1-.825,3.5A6.032,6.032,0,0,1,9.1,20.116,6.589,6.589,0,0,1,5.752,21ZM4.5,9.428v8.936H5.693a2.666,2.666,0,0,0,2.266-1.05,5.145,5.145,0,0,0,.791-3.12v-.615a5.1,5.1,0,0,0-.791-3.105,2.713,2.713,0,0,0-2.3-1.045ZM18.965,21.2a5.432,5.432,0,0,1-3.936-1.45,5.008,5.008,0,0,1-1.5-3.774V15.7a6.489,6.489,0,0,1,.6-2.861,4.395,4.395,0,0,1,1.753-1.919,5.292,5.292,0,0,1,2.734-.679,4.574,4.574,0,0,1,3.516,1.382,5.43,5.43,0,0,1,1.289,3.853v1.279H16.875a2.372,2.372,0,0,0,.771,1.4,2.3,2.3,0,0,0,1.543.508,2.958,2.958,0,0,0,2.441-1.094l1.5,1.777a4.2,4.2,0,0,1-1.743,1.353A5.891,5.891,0,0,1,18.965,21.2Zm-.371-8.418q-1.445,0-1.719,1.914H20.2v-.254a1.63,1.63,0,0,0-.4-1.226A1.593,1.593,0,0,0,18.594,12.777ZM25.508,21V12.719H23.975V10.434h1.533v-.352A4.034,4.034,0,0,1,26.895,6.85a5.541,5.541,0,0,1,3.6-1.055,12.787,12.787,0,0,1,3.438.566l-.449,2.6-.547-.146a8.7,8.7,0,0,0-2.246-.283q-1.885,0-1.885,1.719v.186h2.07v2.285h-2.07V21Zm9.941,0H32.139V10.434h3.311Zm5.029-10.566.107,1.24A3.583,3.583,0,0,1,43.6,10.238a3.015,3.015,0,0,1,2.466.986,4.7,4.7,0,0,1,.845,2.969V21h-3.3V14.33a1.783,1.783,0,0,0-.322-1.177,1.491,1.491,0,0,0-1.172-.376,1.569,1.569,0,0,0-1.436.762V21H37.393V10.434ZM52.207,21h-3.3V10.434h3.3Zm-3.5-13.291a1.469,1.469,0,0,1,.508-1.152,2.159,2.159,0,0,1,2.637,0,1.469,1.469,0,0,1,.508,1.152,1.469,1.469,0,0,1-.508,1.152,2.159,2.159,0,0,1-2.637,0A1.469,1.469,0,0,1,48.711,7.709ZM58.7,18.656a1.464,1.464,0,0,0,1.074-.376,1.379,1.379,0,0,0,.371-1.05h3.086a3.653,3.653,0,0,1-1.245,2.852A4.631,4.631,0,0,1,58.779,21.2a4.689,4.689,0,0,1-3.633-1.445,5.7,5.7,0,0,1-1.328-4v-.137a6.436,6.436,0,0,1,.591-2.827,4.3,4.3,0,0,1,1.7-1.885,5.081,5.081,0,0,1,2.637-.659,4.573,4.573,0,0,1,3.271,1.143,4.053,4.053,0,0,1,1.211,3.1H60.146a1.807,1.807,0,0,0-.4-1.26,1.382,1.382,0,0,0-1.074-.439q-1.279,0-1.494,1.631a11.507,11.507,0,0,0-.068,1.426,4.52,4.52,0,0,0,.381,2.207A1.319,1.319,0,0,0,58.7,18.656ZM68.1,21h-3.3V10.434h3.3ZM64.6,7.709a1.469,1.469,0,0,1,.508-1.152,2.159,2.159,0,0,1,2.637,0,1.469,1.469,0,0,1,.508,1.152,1.469,1.469,0,0,1-.508,1.152,2.159,2.159,0,0,1-2.637,0A1.469,1.469,0,0,1,64.6,7.709Zm5.107,7.91a6.236,6.236,0,0,1,.615-2.817,4.4,4.4,0,0,1,1.768-1.9,5.323,5.323,0,0,1,2.705-.664,4.858,4.858,0,0,1,3.74,1.47,5.64,5.64,0,0,1,1.367,4v.117a5.472,5.472,0,0,1-1.372,3.921,4.871,4.871,0,0,1-3.716,1.45,4.927,4.927,0,0,1-3.623-1.353,5.29,5.29,0,0,1-1.475-3.667ZM73,15.824a3.932,3.932,0,0,0,.459,2.148,1.529,1.529,0,0,0,1.357.684q1.758,0,1.8-2.705v-.332q0-2.842-1.816-2.842-1.65,0-1.787,2.451ZM75.244,6h3.477L76.006,9.066l-2.686,0Zm9.131,4.434.107,1.24A3.583,3.583,0,0,1,87.5,10.238a3.015,3.015,0,0,1,2.466.986,4.7,4.7,0,0,1,.845,2.969V21h-3.3V14.33a1.783,1.783,0,0,0-.322-1.177,1.491,1.491,0,0,0-1.172-.376,1.569,1.569,0,0,0-1.436.762V21H81.289V10.434ZM97.2,15.639a6.455,6.455,0,0,1,1.084-3.955,3.568,3.568,0,0,1,3.027-1.445,3.035,3.035,0,0,1,2.383,1.113V6h3.3V21h-2.959l-.166-1.133a3.116,3.116,0,0,1-2.578,1.328A3.562,3.562,0,0,1,98.3,19.75,6.659,6.659,0,0,1,97.2,15.639Zm3.291.205q0,2.813,1.641,2.813a1.62,1.62,0,0,0,1.563-.918V13.715a1.576,1.576,0,0,0-1.543-.937q-1.523,0-1.65,2.461ZM113.975,21.2a5.432,5.432,0,0,1-3.936-1.45,5.008,5.008,0,0,1-1.5-3.774V15.7a6.489,6.489,0,0,1,.6-2.861,4.395,4.395,0,0,1,1.753-1.919,5.292,5.292,0,0,1,2.734-.679,4.574,4.574,0,0,1,3.516,1.382,5.43,5.43,0,0,1,1.289,3.853v1.279h-6.543a2.372,2.372,0,0,0,.771,1.4,2.3,2.3,0,0,0,1.543.508,2.958,2.958,0,0,0,2.441-1.094l1.5,1.777a4.2,4.2,0,0,1-1.743,1.353A5.891,5.891,0,0,1,113.975,21.2Zm-.371-8.418q-1.445,0-1.719,1.914h3.32v-.254a1.63,1.63,0,0,0-.4-1.226A1.593,1.593,0,0,0,113.6,12.777Zm10.713,2.842a6.236,6.236,0,0,1,.615-2.817,4.4,4.4,0,0,1,1.768-1.9,5.323,5.323,0,0,1,2.705-.664,4.858,4.858,0,0,1,3.74,1.47,5.64,5.64,0,0,1,1.367,4v.117a5.472,5.472,0,0,1-1.372,3.921,4.871,4.871,0,0,1-3.716,1.45,4.927,4.927,0,0,1-3.623-1.353,5.29,5.29,0,0,1-1.475-3.667Zm3.291.205a3.932,3.932,0,0,0,.459,2.148,1.529,1.529,0,0,0,1.357.684q1.758,0,1.8-2.705v-.332q0-2.842-1.816-2.842-1.65,0-1.787,2.451Zm18.164-.02A6.44,6.44,0,0,1,144.7,19.8a3.6,3.6,0,0,1-3.027,1.4,3.122,3.122,0,0,1-2.6-1.279L138.936,21h-2.949V6h3.291v5.283a3.013,3.013,0,0,1,2.373-1.045,3.6,3.6,0,0,1,3.047,1.416,6.473,6.473,0,0,1,1.074,3.984Zm-3.3-.21a4.3,4.3,0,0,0-.405-2.169,1.366,1.366,0,0,0-1.245-.648,1.576,1.576,0,0,0-1.543.848v4.192a1.585,1.585,0,0,0,1.563.838,1.4,1.4,0,0,0,1.475-1.131A8.121,8.121,0,0,0,142.471,15.595Zm8.291-5.161V21.361a3.836,3.836,0,0,1-1.074,2.891,4.127,4.127,0,0,1-2.969,1.016,7.009,7.009,0,0,1-1.553-.166v-2.49a6.3,6.3,0,0,0,.928.088,1.2,1.2,0,0,0,1.367-1.357V10.434Zm-3.545-2.725a1.469,1.469,0,0,1,.508-1.152,2.159,2.159,0,0,1,2.637,0,1.469,1.469,0,0,1,.508,1.152,1.469,1.469,0,0,1-.508,1.152,2.159,2.159,0,0,1-2.637,0A1.469,1.469,0,0,1,147.217,7.709ZM157.734,21.2a5.432,5.432,0,0,1-3.936-1.45,5.008,5.008,0,0,1-1.5-3.774V15.7a6.489,6.489,0,0,1,.6-2.861,4.395,4.395,0,0,1,1.753-1.919,5.292,5.292,0,0,1,2.734-.679A4.574,4.574,0,0,1,160.9,11.62a5.43,5.43,0,0,1,1.289,3.853v1.279h-6.543a2.372,2.372,0,0,0,.771,1.4,2.3,2.3,0,0,0,1.543.508,2.958,2.958,0,0,0,2.441-1.094l1.5,1.777a4.2,4.2,0,0,1-1.743,1.353A5.891,5.891,0,0,1,157.734,21.2Zm-.371-8.418q-1.445,0-1.719,1.914h3.32v-.254a1.63,1.63,0,0,0-.4-1.226A1.593,1.593,0,0,0,157.363,12.777Zm9.98-4.971v2.627h1.738v2.285h-1.738v4.834a1.234,1.234,0,0,0,.215.83,1.152,1.152,0,0,0,.85.234,4.828,4.828,0,0,0,.82-.059v2.354a6.074,6.074,0,0,1-1.855.283,3.448,3.448,0,0,1-2.51-.8,3.282,3.282,0,0,1-.811-2.432V12.719h-1.348V10.434h1.348V7.807ZM173.848,21h-3.3V10.434h3.3Zm-3.5-13.291a1.469,1.469,0,0,1,.508-1.152,2.159,2.159,0,0,1,2.637,0A1.469,1.469,0,0,1,174,7.709a1.469,1.469,0,0,1-.508,1.152,2.159,2.159,0,0,1-2.637,0A1.469,1.469,0,0,1,170.352,7.709Zm9.736,9.375,1.67-6.65h3.467L181.777,21h-3.359l-3.447-10.566h3.477Zm5.557-1.465a6.236,6.236,0,0,1,.615-2.817,4.4,4.4,0,0,1,1.768-1.9,5.323,5.323,0,0,1,2.705-.664,4.858,4.858,0,0,1,3.74,1.47,5.64,5.64,0,0,1,1.367,4v.117a5.472,5.472,0,0,1-1.372,3.921,4.871,4.871,0,0,1-3.716,1.45,4.927,4.927,0,0,1-3.623-1.353,5.29,5.29,0,0,1-1.475-3.667Zm3.291.205a3.932,3.932,0,0,0,.459,2.148,1.529,1.529,0,0,0,1.357.684q1.758,0,1.8-2.705v-.332q0-2.842-1.816-2.842-1.65,0-1.787,2.451ZM4.5,85.176V90H1.074V75.781H6.748a6.608,6.608,0,0,1,2.886.6,4.526,4.526,0,0,1,1.943,1.709,4.667,4.667,0,0,1,.688,2.515,4.114,4.114,0,0,1-1.489,3.325,6.179,6.179,0,0,1-4.087,1.245Zm0-2.646H6.748a2.118,2.118,0,0,0,1.519-.5,1.85,1.85,0,0,0,.522-1.406,2.287,2.287,0,0,0-.537-1.592,1.9,1.9,0,0,0-1.465-.605H4.5ZM19.053,90.2a5.432,5.432,0,0,1-3.936-1.45,5.008,5.008,0,0,1-1.5-3.774V84.7a6.489,6.489,0,0,1,.6-2.861,4.395,4.395,0,0,1,1.753-1.919,5.292,5.292,0,0,1,2.734-.679,4.574,4.574,0,0,1,3.516,1.382,5.43,5.43,0,0,1,1.289,3.853v1.279H16.963a2.372,2.372,0,0,0,.771,1.4,2.3,2.3,0,0,0,1.543.508,2.958,2.958,0,0,0,2.441-1.094l1.5,1.777a4.2,4.2,0,0,1-1.743,1.353A5.891,5.891,0,0,1,19.053,90.2Zm-.371-8.418q-1.445,0-1.719,1.914h3.32v-.254a1.63,1.63,0,0,0-.4-1.226A1.593,1.593,0,0,0,18.682,81.777Zm12.539.635-1.084-.078a1.947,1.947,0,0,0-1.992.977V90H24.854V79.434h3.086l.107,1.357a2.548,2.548,0,0,1,2.314-1.553,3.209,3.209,0,0,1,.918.117Zm5.508-5.605v2.627h1.738v2.285H36.729v4.834a1.234,1.234,0,0,0,.215.83,1.152,1.152,0,0,0,.85.234,4.828,4.828,0,0,0,.82-.059v2.354a6.074,6.074,0,0,1-1.855.283,3.448,3.448,0,0,1-2.51-.8,3.282,3.282,0,0,1-.811-2.432V81.719H32.09V79.434h1.348V76.807ZM43.232,90h-3.3V79.434h3.3Zm-3.5-13.291a1.469,1.469,0,0,1,.508-1.152,2.159,2.159,0,0,1,2.637,0,1.561,1.561,0,0,1,0,2.3,2.159,2.159,0,0,1-2.637,0A1.469,1.469,0,0,1,39.736,76.709Zm8.545,2.725.107,1.24a3.583,3.583,0,0,1,3.018-1.436,3.015,3.015,0,0,1,2.466.986,4.7,4.7,0,0,1,.845,2.969V90h-3.3V83.33a1.783,1.783,0,0,0-.322-1.177,1.491,1.491,0,0,0-1.172-.376,1.569,1.569,0,0,0-1.436.762V90H45.2V79.434ZM61.65,90.2a5.432,5.432,0,0,1-3.936-1.45,5.008,5.008,0,0,1-1.5-3.774V84.7a6.489,6.489,0,0,1,.6-2.861,4.395,4.395,0,0,1,1.753-1.919,5.292,5.292,0,0,1,2.734-.679,4.574,4.574,0,0,1,3.516,1.382A5.43,5.43,0,0,1,66.1,84.473v1.279H59.561a2.372,2.372,0,0,0,.771,1.4,2.3,2.3,0,0,0,1.543.508,2.958,2.958,0,0,0,2.441-1.094l1.5,1.777a4.2,4.2,0,0,1-1.743,1.353A5.891,5.891,0,0,1,61.65,90.2Zm-.371-8.418q-1.445,0-1.719,1.914h3.32v-.254a1.63,1.63,0,0,0-.4-1.226A1.593,1.593,0,0,0,61.279,81.777Zm9.17-2.344.107,1.24a3.583,3.583,0,0,1,3.018-1.436,3.015,3.015,0,0,1,2.466.986,4.7,4.7,0,0,1,.845,2.969V90h-3.3V83.33a1.783,1.783,0,0,0-.322-1.177,1.491,1.491,0,0,0-1.172-.376,1.569,1.569,0,0,0-1.436.762V90H67.363V79.434Zm12.725,8.223a1.464,1.464,0,0,0,1.074-.376,1.379,1.379,0,0,0,.371-1.05h3.086a3.653,3.653,0,0,1-1.245,2.852A4.631,4.631,0,0,1,83.252,90.2a4.689,4.689,0,0,1-3.633-1.445,5.7,5.7,0,0,1-1.328-4v-.137a6.436,6.436,0,0,1,.591-2.827,4.3,4.3,0,0,1,1.7-1.885,5.081,5.081,0,0,1,2.637-.659,4.573,4.573,0,0,1,3.271,1.143,4.053,4.053,0,0,1,1.211,3.1H84.619a1.806,1.806,0,0,0-.4-1.26,1.382,1.382,0,0,0-1.074-.439q-1.279,0-1.494,1.631a11.508,11.508,0,0,0-.068,1.426,4.52,4.52,0,0,0,.381,2.207A1.319,1.319,0,0,0,83.174,87.656ZM92.568,90h-3.3V79.434h3.3Zm-3.5-13.291a1.469,1.469,0,0,1,.508-1.152,2.159,2.159,0,0,1,2.637,0,1.561,1.561,0,0,1,0,2.3,2.159,2.159,0,0,1-2.637,0A1.469,1.469,0,0,1,89.072,76.709ZM100.547,90a3.716,3.716,0,0,1-.312-.947A3.06,3.06,0,0,1,97.7,90.2a3.749,3.749,0,0,1-2.539-.9,2.875,2.875,0,0,1-1.045-2.271,2.955,2.955,0,0,1,1.27-2.6,6.468,6.468,0,0,1,3.691-.879h1.016v-.559q0-1.462-1.26-1.462a1.03,1.03,0,0,0-1.172,1.158H94.365a2.95,2.95,0,0,1,1.3-2.487,5.479,5.479,0,0,1,3.325-.956,4.8,4.8,0,0,1,3.193.986,3.429,3.429,0,0,1,1.2,2.705v4.678a4.79,4.79,0,0,0,.449,2.227V90Zm-2.061-2.148a1.836,1.836,0,0,0,1.021-.264,1.653,1.653,0,0,0,.581-.6V85.3h-.957q-1.719,0-1.719,1.543a.942.942,0,0,0,.3.728A1.1,1.1,0,0,0,98.486,87.852Zm11.289-3.213a6.455,6.455,0,0,1,1.084-3.955,3.568,3.568,0,0,1,3.027-1.445,3.035,3.035,0,0,1,2.383,1.113V75h3.3V90h-2.959l-.166-1.133a3.116,3.116,0,0,1-2.578,1.328,3.562,3.562,0,0,1-2.988-1.445A6.659,6.659,0,0,1,109.775,84.639Zm3.291.205q0,2.813,1.641,2.813a1.62,1.62,0,0,0,1.563-.918V82.715a1.576,1.576,0,0,0-1.543-.937q-1.523,0-1.65,2.461ZM126.553,90.2a5.432,5.432,0,0,1-3.936-1.45,5.008,5.008,0,0,1-1.5-3.774V84.7a6.489,6.489,0,0,1,.6-2.861,4.395,4.395,0,0,1,1.753-1.919,5.292,5.292,0,0,1,2.734-.679,4.574,4.574,0,0,1,3.516,1.382,5.43,5.43,0,0,1,1.289,3.853v1.279h-6.543a2.372,2.372,0,0,0,.771,1.4,2.3,2.3,0,0,0,1.543.508,2.958,2.958,0,0,0,2.441-1.094l1.5,1.777a4.2,4.2,0,0,1-1.743,1.353A5.891,5.891,0,0,1,126.553,90.2Zm-.371-8.418q-1.445,0-1.719,1.914h3.32v-.254a1.63,1.63,0,0,0-.4-1.226A1.593,1.593,0,0,0,126.182,81.777ZM140.781,90h-3.3V75h3.3Zm1.611-5.381a6.236,6.236,0,0,1,.615-2.817,4.4,4.4,0,0,1,1.768-1.9,5.323,5.323,0,0,1,2.705-.664,4.858,4.858,0,0,1,3.74,1.47,5.64,5.64,0,0,1,1.367,4v.117a5.472,5.472,0,0,1-1.372,3.921A4.871,4.871,0,0,1,147.5,90.2a4.927,4.927,0,0,1-3.623-1.353,5.29,5.29,0,0,1-1.475-3.667Zm3.291.205a3.932,3.932,0,0,0,.459,2.148,1.529,1.529,0,0,0,1.357.684q1.758,0,1.8-2.705v-.332q0-2.842-1.816-2.842-1.65,0-1.787,2.451Zm13.887,2.207a.76.76,0,0,0-.439-.674,6.684,6.684,0,0,0-1.67-.527,7.615,7.615,0,0,1-2.031-.718,3.4,3.4,0,0,1-1.221-1.079,2.577,2.577,0,0,1-.42-1.455,2.92,2.92,0,0,1,1.2-2.4,4.948,4.948,0,0,1,3.145-.942,5.482,5.482,0,0,1,3.359.947,2.962,2.962,0,0,1,1.27,2.49h-3.3q0-1.27-1.338-1.27a1.326,1.326,0,0,0-.869.288.892.892,0,0,0-.352.718.819.819,0,0,0,.43.713,4.06,4.06,0,0,0,1.372.449,11.858,11.858,0,0,1,1.655.42,3.007,3.007,0,0,1,2.383,2.939,2.767,2.767,0,0,1-1.284,2.354,5.632,5.632,0,0,1-3.325.908,5.747,5.747,0,0,1-2.422-.488,4.05,4.05,0,0,1-1.66-1.328,3.007,3.007,0,0,1-.6-1.768h3.076a1.272,1.272,0,0,0,.488,1.069,2.009,2.009,0,0,0,1.2.337,1.58,1.58,0,0,0,1.011-.273A.875.875,0,0,0,159.57,87.031ZM173.1,76.807v2.627h1.738v2.285H173.1v4.834a1.234,1.234,0,0,0,.215.83,1.152,1.152,0,0,0,.85.234,4.828,4.828,0,0,0,.82-.059v2.354a6.074,6.074,0,0,1-1.855.283,3.448,3.448,0,0,1-2.51-.8,3.282,3.282,0,0,1-.811-2.432V81.719h-1.348V79.434H169.8V76.807ZM181.24,90.2a5.432,5.432,0,0,1-3.936-1.45,5.008,5.008,0,0,1-1.5-3.774V84.7a6.489,6.489,0,0,1,.6-2.861,4.395,4.395,0,0,1,1.753-1.919,5.292,5.292,0,0,1,2.734-.679A4.574,4.574,0,0,1,184.4,80.62a5.43,5.43,0,0,1,1.289,3.853v1.279H179.15a2.372,2.372,0,0,0,.771,1.4,2.3,2.3,0,0,0,1.543.508,2.958,2.958,0,0,0,2.441-1.094l1.5,1.777a4.2,4.2,0,0,1-1.743,1.353A5.891,5.891,0,0,1,181.24,90.2Zm-.371-8.418q-1.445,0-1.719,1.914h3.32v-.254a1.63,1.63,0,0,0-.4-1.226A1.593,1.593,0,0,0,180.869,81.777Zm10.43.566,1.533-2.91h3.418l-2.783,5.146,2.92,5.42h-3.437l-1.66-3.125L189.658,90H186.2l2.93-5.42-2.773-5.146h3.457Zm9.844-5.537v2.627h1.738v2.285h-1.738v4.834a1.234,1.234,0,0,0,.215.83,1.152,1.152,0,0,0,.85.234,4.828,4.828,0,0,0,.82-.059v2.354a6.074,6.074,0,0,1-1.855.283,3.448,3.448,0,0,1-2.51-.8,3.282,3.282,0,0,1-.811-2.432V81.719H196.5V79.434h1.348V76.807Zm2.324,7.813a6.236,6.236,0,0,1,.615-2.817,4.4,4.4,0,0,1,1.768-1.9,5.323,5.323,0,0,1,2.705-.664,4.858,4.858,0,0,1,3.74,1.47,5.64,5.64,0,0,1,1.367,4v.117a5.472,5.472,0,0,1-1.372,3.921,4.871,4.871,0,0,1-3.716,1.45,4.927,4.927,0,0,1-3.623-1.353,5.29,5.29,0,0,1-1.475-3.667Zm3.291.205a3.932,3.932,0,0,0,.459,2.148,1.529,1.529,0,0,0,1.357.684q1.758,0,1.8-2.705v-.332q0-2.842-1.816-2.842-1.65,0-1.787,2.451Zm13.887,2.207a.76.76,0,0,0-.439-.674,6.684,6.684,0,0,0-1.67-.527,7.615,7.615,0,0,1-2.031-.718,3.4,3.4,0,0,1-1.221-1.079,2.577,2.577,0,0,1-.42-1.455,2.92,2.92,0,0,1,1.2-2.4,4.948,4.948,0,0,1,3.145-.942,5.482,5.482,0,0,1,3.359.947,2.962,2.962,0,0,1,1.27,2.49h-3.3q0-1.27-1.338-1.27a1.326,1.326,0,0,0-.869.288.892.892,0,0,0-.352.718.819.819,0,0,0,.43.713,4.06,4.06,0,0,0,1.372.449,11.858,11.858,0,0,1,1.655.42,3.007,3.007,0,0,1,2.383,2.939,2.767,2.767,0,0,1-1.284,2.354,5.632,5.632,0,0,1-3.325.908,5.747,5.747,0,0,1-2.422-.488,4.05,4.05,0,0,1-1.66-1.328,3.007,3.007,0,0,1-.6-1.768h3.076a1.272,1.272,0,0,0,.488,1.069,2.009,2.009,0,0,0,1.2.337,1.58,1.58,0,0,0,1.011-.273A.875.875,0,0,0,220.645,87.031ZM1.074,159V144.781h4.58a6.737,6.737,0,0,1,3.389.854,6.006,6.006,0,0,1,2.349,2.412,7.283,7.283,0,0,1,.854,3.491v.654a7.325,7.325,0,0,1-.825,3.5A6.032,6.032,0,0,1,9.1,158.116,6.589,6.589,0,0,1,5.752,159ZM4.5,147.428v8.936H5.693a2.666,2.666,0,0,0,2.266-1.05,5.145,5.145,0,0,0,.791-3.12v-.615a5.1,5.1,0,0,0-.791-3.105,2.713,2.713,0,0,0-2.3-1.045ZM17.324,159h-3.3V148.434h3.3Zm-3.5-13.291a1.469,1.469,0,0,1,.508-1.152,1.916,1.916,0,0,1,1.318-.449,1.916,1.916,0,0,1,1.318.449,1.561,1.561,0,0,1,0,2.3,1.916,1.916,0,0,1-1.318.449,1.916,1.916,0,0,1-1.318-.449A1.469,1.469,0,0,1,13.828,145.709Zm11.055,10.322a.76.76,0,0,0-.439-.674,6.685,6.685,0,0,0-1.67-.527,7.615,7.615,0,0,1-2.031-.718,3.4,3.4,0,0,1-1.221-1.079,2.577,2.577,0,0,1-.42-1.455,2.92,2.92,0,0,1,1.2-2.4,4.948,4.948,0,0,1,3.145-.942,5.482,5.482,0,0,1,3.359.947,2.962,2.962,0,0,1,1.27,2.49h-3.3q0-1.27-1.338-1.27a1.326,1.326,0,0,0-.869.288.892.892,0,0,0-.352.718.819.819,0,0,0,.43.713,4.06,4.06,0,0,0,1.372.449,11.856,11.856,0,0,1,1.655.42,3.007,3.007,0,0,1,2.383,2.939,2.767,2.767,0,0,1-1.284,2.354,5.631,5.631,0,0,1-3.325.908,5.747,5.747,0,0,1-2.422-.488,4.05,4.05,0,0,1-1.66-1.328,3.007,3.007,0,0,1-.6-1.768h3.076a1.272,1.272,0,0,0,.488,1.069,2.009,2.009,0,0,0,1.2.337,1.58,1.58,0,0,0,1.011-.273A.875.875,0,0,0,24.883,156.031ZM39.4,153.795a6.372,6.372,0,0,1-1.108,3.931A3.554,3.554,0,0,1,35.3,159.2a3.046,3.046,0,0,1-2.393-1.064v4.932H29.619V148.434H32.7l.1.977a3.046,3.046,0,0,1,2.49-1.172,3.582,3.582,0,0,1,3.037,1.44,6.45,6.45,0,0,1,1.084,3.96Zm-3.291-.205q0-2.812-1.641-2.812a1.549,1.549,0,0,0-1.562.84v4.16a1.6,1.6,0,0,0,1.582.879q1.572,0,1.621-2.715Zm4.326.029a6.236,6.236,0,0,1,.615-2.817,4.4,4.4,0,0,1,1.768-1.9,5.323,5.323,0,0,1,2.705-.664,4.859,4.859,0,0,1,3.74,1.47,5.64,5.64,0,0,1,1.367,4v.117a5.472,5.472,0,0,1-1.372,3.921,4.871,4.871,0,0,1-3.716,1.45,4.927,4.927,0,0,1-3.623-1.353,5.29,5.29,0,0,1-1.475-3.667Zm3.291.205a3.932,3.932,0,0,0,.459,2.148,1.529,1.529,0,0,0,1.357.684q1.758,0,1.8-2.705v-.332q0-2.842-1.816-2.842-1.65,0-1.787,2.451Zm11.377-5.391.107,1.24a3.583,3.583,0,0,1,3.018-1.436,3.015,3.015,0,0,1,2.466.986,4.7,4.7,0,0,1,.845,2.969V159h-3.3v-6.67a1.783,1.783,0,0,0-.322-1.177,1.491,1.491,0,0,0-1.172-.376,1.569,1.569,0,0,0-1.436.762V159H52.021V148.434ZM66.836,159h-3.3V148.434h3.3Zm-3.5-13.291a1.469,1.469,0,0,1,.508-1.152,2.159,2.159,0,0,1,2.637,0,1.561,1.561,0,0,1,0,2.3,2.159,2.159,0,0,1-2.637,0A1.469,1.469,0,0,1,63.34,145.709Zm15.332,8.1A6.44,6.44,0,0,1,77.6,157.8a3.6,3.6,0,0,1-3.027,1.4,3.122,3.122,0,0,1-2.6-1.279L71.836,159H68.887V144h3.291v5.283a3.013,3.013,0,0,1,2.373-1.045,3.6,3.6,0,0,1,3.047,1.416,6.473,6.473,0,0,1,1.074,3.984Zm-3.3-.21a4.3,4.3,0,0,0-.405-2.169,1.366,1.366,0,0,0-1.245-.648,1.576,1.576,0,0,0-1.543.848v4.192a1.585,1.585,0,0,0,1.563.838,1.4,1.4,0,0,0,1.475-1.131A8.121,8.121,0,0,0,75.371,153.595ZM83.594,159h-3.3V148.434h3.3Zm-3.5-13.291a1.469,1.469,0,0,1,.508-1.152,2.159,2.159,0,0,1,2.637,0,1.561,1.561,0,0,1,0,2.3,2.159,2.159,0,0,1-2.637,0A1.469,1.469,0,0,1,80.1,145.709ZM89.092,159h-3.3V144h3.3Zm5.5,0h-3.3V148.434h3.3Zm-3.5-13.291a1.469,1.469,0,0,1,.508-1.152,2.159,2.159,0,0,1,2.637,0,1.561,1.561,0,0,1,0,2.3,2.159,2.159,0,0,1-2.637,0A1.469,1.469,0,0,1,91.094,145.709Zm5.107,7.93a6.455,6.455,0,0,1,1.084-3.955,3.568,3.568,0,0,1,3.027-1.445,3.035,3.035,0,0,1,2.383,1.113V144H106v15h-2.959l-.166-1.133a3.116,3.116,0,0,1-2.578,1.328A3.562,3.562,0,0,1,97.3,157.75,6.659,6.659,0,0,1,96.2,153.639Zm3.291.205q0,2.813,1.641,2.813a1.62,1.62,0,0,0,1.563-.918v-4.023a1.576,1.576,0,0,0-1.543-.937q-1.523,0-1.65,2.461ZM113.818,159a3.716,3.716,0,0,1-.312-.947,3.06,3.06,0,0,1-2.539,1.143,3.749,3.749,0,0,1-2.539-.9,2.875,2.875,0,0,1-1.045-2.271,2.955,2.955,0,0,1,1.27-2.6,6.468,6.468,0,0,1,3.691-.879h1.016v-.559q0-1.462-1.26-1.462a1.03,1.03,0,0,0-1.172,1.158h-3.291a2.95,2.95,0,0,1,1.3-2.487,5.479,5.479,0,0,1,3.325-.956,4.8,4.8,0,0,1,3.193.986,3.429,3.429,0,0,1,1.2,2.705v4.678a4.79,4.79,0,0,0,.449,2.227V159Zm-2.061-2.148a1.836,1.836,0,0,0,1.021-.264,1.653,1.653,0,0,0,.581-.6V154.3H112.4q-1.719,0-1.719,1.543a.942.942,0,0,0,.3.728A1.1,1.1,0,0,0,111.758,156.852Zm6.309-3.213a6.455,6.455,0,0,1,1.084-3.955,3.568,3.568,0,0,1,3.027-1.445,3.035,3.035,0,0,1,2.383,1.113V144h3.3v15H124.9l-.166-1.133a3.116,3.116,0,0,1-2.578,1.328,3.562,3.562,0,0,1-2.988-1.445A6.659,6.659,0,0,1,118.066,153.639Zm3.291.205q0,2.813,1.641,2.813a1.62,1.62,0,0,0,1.563-.918v-4.023a1.576,1.576,0,0,0-1.543-.937q-1.523,0-1.65,2.461Zm12.939-.205a6.455,6.455,0,0,1,1.084-3.955,3.568,3.568,0,0,1,3.027-1.445,3.035,3.035,0,0,1,2.383,1.113V144h3.3v15h-2.959l-.166-1.133a3.116,3.116,0,0,1-2.578,1.328,3.562,3.562,0,0,1-2.988-1.445A6.659,6.659,0,0,1,134.3,153.639Zm3.291.205q0,2.813,1.641,2.813a1.62,1.62,0,0,0,1.563-.918v-4.023a1.576,1.576,0,0,0-1.543-.937q-1.523,0-1.65,2.461Zm13.486,5.352a5.432,5.432,0,0,1-3.936-1.45,5.008,5.008,0,0,1-1.5-3.774V153.7a6.489,6.489,0,0,1,.6-2.861,4.395,4.395,0,0,1,1.753-1.919,5.292,5.292,0,0,1,2.734-.679,4.574,4.574,0,0,1,3.516,1.382,5.43,5.43,0,0,1,1.289,3.853v1.279h-6.543a2.372,2.372,0,0,0,.771,1.4,2.3,2.3,0,0,0,1.543.508,2.958,2.958,0,0,0,2.441-1.094l1.5,1.777a4.2,4.2,0,0,1-1.743,1.353A5.891,5.891,0,0,1,151.074,159.2Zm-.371-8.418q-1.445,0-1.719,1.914h3.32v-.254a1.63,1.63,0,0,0-.4-1.226A1.593,1.593,0,0,0,150.7,150.777ZM160.322,159h-3.3V144h3.3Zm10.84-13.193v2.627H172.9v2.285h-1.738v4.834a1.234,1.234,0,0,0,.215.83,1.152,1.152,0,0,0,.85.234,4.828,4.828,0,0,0,.82-.059v2.354a6.074,6.074,0,0,1-1.855.283,3.448,3.448,0,0,1-2.51-.8,3.282,3.282,0,0,1-.811-2.432v-5.244h-1.348v-2.285h1.348v-2.627Zm6.5,13.193h-3.3V148.434h3.3Zm-3.5-13.291a1.469,1.469,0,0,1,.508-1.152,2.159,2.159,0,0,1,2.637,0,1.561,1.561,0,0,1,0,2.3,2.159,2.159,0,0,1-2.637,0A1.469,1.469,0,0,1,174.17,145.709ZM184.8,159.2a5.432,5.432,0,0,1-3.936-1.45,5.008,5.008,0,0,1-1.5-3.774V153.7a6.489,6.489,0,0,1,.6-2.861,4.395,4.395,0,0,1,1.753-1.919,5.292,5.292,0,0,1,2.734-.679,4.574,4.574,0,0,1,3.516,1.382,5.43,5.43,0,0,1,1.289,3.853v1.279h-6.543a2.372,2.372,0,0,0,.771,1.4,2.3,2.3,0,0,0,1.543.508,2.958,2.958,0,0,0,2.441-1.094l1.5,1.777a4.2,4.2,0,0,1-1.743,1.353A5.891,5.891,0,0,1,184.8,159.2Zm-.371-8.418q-1.445,0-1.719,1.914h3.32v-.254a1.63,1.63,0,0,0-.4-1.226A1.593,1.593,0,0,0,184.434,150.777Zm9.258-2.344.107,1.24a3.633,3.633,0,0,1,3.018-1.436,2.675,2.675,0,0,1,2.705,1.592,3.516,3.516,0,0,1,3.105-1.592q3.213,0,3.3,3.887V159h-3.3v-6.67a2.014,2.014,0,0,0-.273-1.182,1.164,1.164,0,0,0-1-.371,1.559,1.559,0,0,0-1.455.869l.01.137V159h-3.3v-6.65a2.117,2.117,0,0,0-.264-1.2,1.161,1.161,0,0,0-1.006-.371,1.578,1.578,0,0,0-1.445.869V159h-3.291V148.434Zm23.926,5.361a6.372,6.372,0,0,1-1.108,3.931,3.554,3.554,0,0,1-2.993,1.47,3.046,3.046,0,0,1-2.393-1.064v4.932h-3.291V148.434h3.076l.1.977a3.046,3.046,0,0,1,2.49-1.172,3.582,3.582,0,0,1,3.037,1.44,6.45,6.45,0,0,1,1.084,3.96Zm-3.291-.205q0-2.812-1.641-2.812a1.549,1.549,0,0,0-1.562.84v4.16a1.6,1.6,0,0,0,1.582.879q1.572,0,1.621-2.715Zm4.326.029a6.236,6.236,0,0,1,.615-2.817,4.4,4.4,0,0,1,1.768-1.9,5.324,5.324,0,0,1,2.705-.664,4.858,4.858,0,0,1,3.74,1.47,5.64,5.64,0,0,1,1.367,4v.117a5.472,5.472,0,0,1-1.372,3.921,4.871,4.871,0,0,1-3.716,1.45,4.927,4.927,0,0,1-3.623-1.353,5.29,5.29,0,0,1-1.475-3.667Zm3.291.205a3.932,3.932,0,0,0,.459,2.148,1.529,1.529,0,0,0,1.357.684q1.758,0,1.8-2.705v-.332q0-2.842-1.816-2.842-1.65,0-1.787,2.451ZM9.893,221.965H4.5v3.4h6.367V228H1.074V213.781h9.814v2.646H4.5v3H9.893ZM15.586,228h-3.3V213h3.3Zm7.139.2a5.432,5.432,0,0,1-3.936-1.45,5.008,5.008,0,0,1-1.5-3.774V222.7a6.489,6.489,0,0,1,.6-2.861,4.395,4.395,0,0,1,1.753-1.919,5.292,5.292,0,0,1,2.734-.679,4.574,4.574,0,0,1,3.516,1.382,5.43,5.43,0,0,1,1.289,3.853v1.279H20.635a2.372,2.372,0,0,0,.771,1.4,2.3,2.3,0,0,0,1.543.508,2.958,2.958,0,0,0,2.441-1.094l1.5,1.777a4.2,4.2,0,0,1-1.743,1.353A5.891,5.891,0,0,1,22.725,228.2Zm-.371-8.418q-1.445,0-1.719,1.914h3.32v-.254a1.63,1.63,0,0,0-.4-1.226A1.593,1.593,0,0,0,22.354,219.777Zm10.615,5.879a1.464,1.464,0,0,0,1.074-.376,1.379,1.379,0,0,0,.371-1.05H37.5a3.653,3.653,0,0,1-1.245,2.852,4.631,4.631,0,0,1-3.208,1.113,4.689,4.689,0,0,1-3.633-1.445,5.7,5.7,0,0,1-1.328-4v-.137a6.436,6.436,0,0,1,.591-2.827,4.3,4.3,0,0,1,1.7-1.885,5.081,5.081,0,0,1,2.637-.659,4.573,4.573,0,0,1,3.271,1.143,4.053,4.053,0,0,1,1.211,3.1H34.414a1.807,1.807,0,0,0-.4-1.26,1.382,1.382,0,0,0-1.074-.439q-1.279,0-1.494,1.631a11.508,11.508,0,0,0-.068,1.426,4.52,4.52,0,0,0,.381,2.207A1.319,1.319,0,0,0,32.969,225.656Zm10.391,0a1.464,1.464,0,0,0,1.074-.376,1.379,1.379,0,0,0,.371-1.05h3.086a3.653,3.653,0,0,1-1.245,2.852,4.631,4.631,0,0,1-3.208,1.113A4.689,4.689,0,0,1,39.8,226.75a5.7,5.7,0,0,1-1.328-4v-.137a6.436,6.436,0,0,1,.591-2.827,4.3,4.3,0,0,1,1.7-1.885,5.081,5.081,0,0,1,2.637-.659,4.573,4.573,0,0,1,3.271,1.143,4.053,4.053,0,0,1,1.211,3.1H44.8a1.807,1.807,0,0,0-.4-1.26,1.382,1.382,0,0,0-1.074-.439q-1.279,0-1.494,1.631a11.507,11.507,0,0,0-.068,1.426,4.52,4.52,0,0,0,.381,2.207A1.319,1.319,0,0,0,43.359,225.656ZM52.754,228h-3.3V217.434h3.3Zm-3.5-13.291a1.469,1.469,0,0,1,.508-1.152,2.159,2.159,0,0,1,2.637,0,1.561,1.561,0,0,1,0,2.3,2.159,2.159,0,0,1-2.637,0A1.469,1.469,0,0,1,49.258,214.709Zm5.107,7.91a6.236,6.236,0,0,1,.615-2.817,4.4,4.4,0,0,1,1.768-1.9,5.323,5.323,0,0,1,2.705-.664,4.859,4.859,0,0,1,3.74,1.47,5.64,5.64,0,0,1,1.367,4v.117a5.472,5.472,0,0,1-1.372,3.921,4.871,4.871,0,0,1-3.716,1.45,4.927,4.927,0,0,1-3.623-1.353,5.29,5.29,0,0,1-1.475-3.667Zm3.291.205a3.932,3.932,0,0,0,.459,2.148,1.529,1.529,0,0,0,1.357.684q1.758,0,1.8-2.705v-.332q0-2.842-1.816-2.842-1.65,0-1.787,2.451ZM59.9,213h3.477l-2.715,3.066-2.686,0Zm9.131,4.434.107,1.24a3.583,3.583,0,0,1,3.018-1.436,3.015,3.015,0,0,1,2.466.986,4.7,4.7,0,0,1,.845,2.969V228h-3.3v-6.67a1.783,1.783,0,0,0-.322-1.177,1.491,1.491,0,0,0-1.172-.376,1.569,1.569,0,0,0-1.436.762V228H65.947V217.434Zm12.822,5.205a6.455,6.455,0,0,1,1.084-3.955,3.568,3.568,0,0,1,3.027-1.445,3.035,3.035,0,0,1,2.383,1.113V213h3.3v15H88.691l-.166-1.133a3.116,3.116,0,0,1-2.578,1.328,3.562,3.562,0,0,1-2.988-1.445A6.659,6.659,0,0,1,81.855,222.639Zm3.291.205q0,2.813,1.641,2.813a1.62,1.62,0,0,0,1.563-.918v-4.023a1.576,1.576,0,0,0-1.543-.937q-1.523,0-1.65,2.461ZM98.633,228.2a5.432,5.432,0,0,1-3.936-1.45,5.008,5.008,0,0,1-1.5-3.774V222.7a6.489,6.489,0,0,1,.6-2.861,4.395,4.395,0,0,1,1.753-1.919,5.292,5.292,0,0,1,2.734-.679,4.574,4.574,0,0,1,3.516,1.382,5.43,5.43,0,0,1,1.289,3.853v1.279H96.543a2.372,2.372,0,0,0,.771,1.4,2.3,2.3,0,0,0,1.543.508,2.958,2.958,0,0,0,2.441-1.094l1.5,1.777a4.2,4.2,0,0,1-1.743,1.353A5.891,5.891,0,0,1,98.633,228.2Zm-.371-8.418q-1.445,0-1.719,1.914h3.32v-.254a1.63,1.63,0,0,0-.4-1.226A1.593,1.593,0,0,0,98.262,219.777ZM107.881,228h-3.3V213h3.3Zm12.119.2a5.432,5.432,0,0,1-3.936-1.45,5.008,5.008,0,0,1-1.5-3.774V222.7a6.489,6.489,0,0,1,.6-2.861,4.395,4.395,0,0,1,1.753-1.919,5.292,5.292,0,0,1,2.734-.679,4.574,4.574,0,0,1,3.516,1.382,5.43,5.43,0,0,1,1.289,3.853v1.279H117.91a2.372,2.372,0,0,0,.771,1.4,2.3,2.3,0,0,0,1.543.508,2.958,2.958,0,0,0,2.441-1.094l1.5,1.777a4.2,4.2,0,0,1-1.743,1.353A5.891,5.891,0,0,1,120,228.2Zm-.371-8.418q-1.445,0-1.719,1.914h3.32v-.254a1.63,1.63,0,0,0-.4-1.226A1.593,1.593,0,0,0,119.629,219.777Zm11.68,5.254a.76.76,0,0,0-.439-.674,6.685,6.685,0,0,0-1.67-.527,7.615,7.615,0,0,1-2.031-.718,3.4,3.4,0,0,1-1.221-1.079,2.577,2.577,0,0,1-.42-1.455,2.92,2.92,0,0,1,1.2-2.4,4.948,4.948,0,0,1,3.145-.942,5.482,5.482,0,0,1,3.359.947,2.962,2.962,0,0,1,1.27,2.49h-3.3q0-1.27-1.338-1.27a1.326,1.326,0,0,0-.869.288.892.892,0,0,0-.352.718.819.819,0,0,0,.43.713,4.06,4.06,0,0,0,1.372.449,11.857,11.857,0,0,1,1.655.42,3.007,3.007,0,0,1,2.383,2.939,2.767,2.767,0,0,1-1.284,2.354,5.632,5.632,0,0,1-3.325.908,5.747,5.747,0,0,1-2.422-.488,4.05,4.05,0,0,1-1.66-1.328,3.007,3.007,0,0,1-.6-1.768h3.076a1.272,1.272,0,0,0,.488,1.069,2.009,2.009,0,0,0,1.2.337,1.58,1.58,0,0,0,1.011-.273A.875.875,0,0,0,131.309,225.031Zm14.521-2.236a6.372,6.372,0,0,1-1.108,3.931,3.554,3.554,0,0,1-2.993,1.47,3.046,3.046,0,0,1-2.393-1.064v4.932h-3.291V217.434h3.076l.1.977a3.046,3.046,0,0,1,2.49-1.172,3.582,3.582,0,0,1,3.037,1.44,6.45,6.45,0,0,1,1.084,3.96Zm-3.291-.205q0-2.812-1.641-2.812a1.549,1.549,0,0,0-1.562.84v4.16a1.6,1.6,0,0,0,1.582.879q1.572,0,1.621-2.715ZM153.232,228a3.716,3.716,0,0,1-.312-.947,3.06,3.06,0,0,1-2.539,1.143,3.749,3.749,0,0,1-2.539-.9,2.875,2.875,0,0,1-1.045-2.271,2.955,2.955,0,0,1,1.27-2.6,6.468,6.468,0,0,1,3.691-.879h1.016v-.559q0-1.462-1.26-1.462a1.03,1.03,0,0,0-1.172,1.158h-3.291a2.95,2.95,0,0,1,1.3-2.487,5.479,5.479,0,0,1,3.325-.956,4.8,4.8,0,0,1,3.193.986,3.429,3.429,0,0,1,1.2,2.705v4.678a4.79,4.79,0,0,0,.449,2.227V228Zm-2.061-2.148a1.836,1.836,0,0,0,1.021-.264,1.652,1.652,0,0,0,.581-.6V223.3h-.957q-1.719,0-1.719,1.543a.942.942,0,0,0,.3.728A1.1,1.1,0,0,0,151.172,225.852Zm11.191-.2a1.464,1.464,0,0,0,1.074-.376,1.379,1.379,0,0,0,.371-1.05h3.086a3.653,3.653,0,0,1-1.245,2.852,4.631,4.631,0,0,1-3.208,1.113,4.689,4.689,0,0,1-3.633-1.445,5.7,5.7,0,0,1-1.328-4v-.137a6.436,6.436,0,0,1,.591-2.827,4.3,4.3,0,0,1,1.7-1.885,5.081,5.081,0,0,1,2.637-.659,4.573,4.573,0,0,1,3.271,1.143,4.053,4.053,0,0,1,1.211,3.1h-3.086a1.807,1.807,0,0,0-.4-1.26,1.382,1.382,0,0,0-1.074-.439q-1.279,0-1.494,1.631a11.507,11.507,0,0,0-.068,1.426,4.52,4.52,0,0,0,.381,2.207A1.319,1.319,0,0,0,162.363,225.656ZM171.758,228h-3.3V217.434h3.3Zm-3.5-13.291a1.469,1.469,0,0,1,.508-1.152,2.159,2.159,0,0,1,2.637,0,1.561,1.561,0,0,1,0,2.3,2.159,2.159,0,0,1-2.637,0A1.469,1.469,0,0,1,168.262,214.709Zm5.107,7.91a6.236,6.236,0,0,1,.615-2.817,4.4,4.4,0,0,1,1.768-1.9,5.324,5.324,0,0,1,2.705-.664,4.858,4.858,0,0,1,3.74,1.47,5.64,5.64,0,0,1,1.367,4v.117a5.472,5.472,0,0,1-1.372,3.921,4.871,4.871,0,0,1-3.716,1.45,4.927,4.927,0,0,1-3.623-1.353,5.29,5.29,0,0,1-1.475-3.667Zm3.291.205a3.932,3.932,0,0,0,.459,2.148,1.529,1.529,0,0,0,1.357.684q1.758,0,1.8-2.705v-.332q0-2.842-1.816-2.842-1.65,0-1.787,2.451Z" transform="translate(783.333 5317)" fill="#12263f"/>
    <path id="Trazado_874476" data-name="Trazado 874476" d="M27,0A27,27,0,1,1,0,27,27,27,0,0,1,27,0Z" transform="translate(717.333 5305)" fill="#eba325" opacity="0.3"/>
    <path id="Trazado_874477" data-name="Trazado 874477" d="M27,0A27,27,0,1,1,0,27,27,27,0,0,1,27,0Z" transform="translate(717.333 5373)" fill="#eba325" opacity="0.3"/>
    <path id="Trazado_874481" data-name="Trazado 874481" d="M27,0A27,27,0,1,1,0,27,27,27,0,0,1,27,0Z" transform="translate(717.333 5442)" fill="#eba325" opacity="0.3"/>
    <path id="Trazado_874483" data-name="Trazado 874483" d="M27,0A27,27,0,1,1,0,27,27,27,0,0,1,27,0Z" transform="translate(717.333 5510)" fill="#eba325" opacity="0.3"/>
    <path id="Trazado_874478" data-name="Trazado 874478" d="M17,0A17,17,0,1,1,0,17,17,17,0,0,1,17,0Z" transform="translate(727.333 5315)" fill="#f4ab5d"/>
    <path id="Trazado_874479" data-name="Trazado 874479" d="M17,0A17,17,0,1,1,0,17,17,17,0,0,1,17,0Z" transform="translate(727.333 5383)" fill="#f4ab5d"/>
    <path id="Trazado_874482" data-name="Trazado 874482" d="M17,0A17,17,0,1,1,0,17,17,17,0,0,1,17,0Z" transform="translate(727.333 5452)" fill="#f4ab5d"/>
    <path id="Trazado_874484" data-name="Trazado 874484" d="M17,0A17,17,0,1,1,0,17,17,17,0,0,1,17,0Z" transform="translate(727.333 5520)" fill="#f4ab5d"/>
  </g>
</svg>
