<svg xmlns="http://www.w3.org/2000/svg" xmlns:xlink="http://www.w3.org/1999/xlink" width="1030" height="82.377" viewBox="0 0 1030 82.377">
  <defs>
    <clipPath id="clip-path">
      <rect id="Rectángulo_401054" data-name="Rectángulo 401054" width="1030" height="82.378" fill="#6c1a34"/>
    </clipPath>
  </defs>
  <g id="Grupo_1098779" data-name="Grupo 1098779" transform="translate(1406.429 -3711)">
    <g id="Grupo_1098778" data-name="Grupo 1098778" transform="translate(-1406.429 3711)">
      <g id="Grupo_1098777" data-name="Grupo 1098777" clip-path="url(#clip-path)">
        <path id="Trazado_873099" data-name="Trazado 873099" d="M556.867,13.681V80.457l-2.335,1.29L530.782,51.7c-4.781,6.363-8.854,11.788-12.932,17.21-2.917,3.878-5.745,7.829-8.817,11.581-.854,1.042-2.435,1.489-3.682,2.21-.52-1.177-1.5-2.355-1.492-3.529q.1-29.872.5-59.743c.023-1.6,1.212-3.18,1.86-4.769,1.672.952,3.813,1.527,4.934,2.922,4.781,5.946,9.251,12.142,13.855,18.232,1.773,2.346,3.6,4.651,5.844,7.548,9.487-8.968,13.841-21.682,26.018-29.678M553.2,26.569l-2.456-1.715c-5.259,7.256-10.549,14.488-15.713,21.81a2.912,2.912,0,0,0,.173,2.661c5.167,7.122,10.446,14.161,15.7,21.223l2.3-1.029ZM511,25.047l-1.784,1.406V68.9l2.069,1.041c3.413-4.352,7.02-8.568,10.2-13.085,6.683-9.495,6.7-9.638-.023-18.945-3.23-4.472-6.958-8.585-10.461-12.86" transform="translate(-387.71 -10.527)" fill="#6c1a34"/>
        <path id="Trazado_873100" data-name="Trazado 873100" d="M257.745,41.505c7.05,6.317,12.914,11.463,18.65,16.748,3.79,3.492,3.808,6.384-1.3,8.96-8.017,4.04-15.878,8.4-23.7,12.819-3.036,1.716-5.115,1.5-4.983-2.246.33-9.39,1.367-18.76,1.565-28.149.278-13.182.094-26.375-.006-39.562-.013-1.784-.858-3.551-.995-5.35a20.56,20.56,0,0,1,.492-4.133c1.22.4,2.684.495,3.623,1.246,8.643,6.915,17.171,13.973,25.782,20.927,4.24,3.424,4.353,6.015-.923,8.6-5.486,2.692-10.706,5.925-18.206,10.136M254.11,10.283,251.587,12c0,7.091-.068,14.182.027,21.272.053,3.9,2.189,4.837,5.511,3.217a105.89,105.89,0,0,0,12.233-6.437c1.393-.923,2.766-4.759,2.28-5.2C266,19.769,260.009,15.078,254.11,10.283M252.79,73.6c3.534-1.916,5.739-3.1,7.931-4.3,12.371-6.8,12.432-6.862,2.972-16.845-2.932-3.094-6.306-5.768-10.9-9.923Z" transform="translate(-189.604 -0.456)" fill="#6c1a34"/>
        <path id="Trazado_873101" data-name="Trazado 873101" d="M864.757,32.674c3.687,3.966,7.316,7.988,11.075,11.884,5.842,6.055,6.01,5.922,11.291-.307,3.133-3.7,6.659-7.058,10.008-10.57l2.331.772V83.93c2.359-.509,3.415-1.144,3.418-1.784.1-18.018.135-36.036-.015-54.053-.01-1.265-1.35-3.273-2.437-3.562s-2.937.876-3.886,1.92c-4.792,5.268-9.4,10.705-14.6,16.689-1.987-1.89-3.825-3.5-5.5-5.264-3.506-3.686-6.686-7.72-10.448-11.114-3.883-3.5-8.492-2.1-8.533,2.489-.158,17.818-.034,35.638.173,53.456.013,1.137,1.619,2.256,2.485,3.383.8-1.216,2.222-2.4,2.287-3.653.239-4.612,0-9.248-.008-13.875q-.026-17.5-.006-35l2.364-.889" transform="translate(-659.746 -18.842)" fill="#6c1a34"/>
        <path id="Trazado_873102" data-name="Trazado 873102" d="M1727.682,36.462c-.936-.348-2.294.439-3.458.705.482,1.123.658,2.689,1.51,3.275A21.128,21.128,0,0,0,1731.355,43c6.219,1.958,8.558,5.918,8.121,12.528-.487,7.362.024,14.8.256,22.2a25.852,25.852,0,0,0,1.142,4.991l2.773-.219V49.733c5.131,2.457,8.284,4.461,11.726,5.522,10.131,3.124,14.582,9.436,12.827,20.142-.359,2.2.847,4.648,1.332,6.981l2.345-.283.823-18.649,13.835,6.468,1.5-1.763c-1.9-1.7-3.549-4.338-5.748-4.932-9.652-2.609-11.358-9.417-10.5-17.95.185-1.841.318-3.695.333-5.544.044-5.307.016-10.615.016-15.923l-3.707-.125V55.793c-7.792-3.363-13.39-5.994-19.151-8.2-4.291-1.64-6.081-4.121-5.7-8.9.395-4.915-.214-9.91-.384-14.87l-3.213.066c-.388,5.506-.775,11.011-1.226,17.409-4.068-1.816-7.505-3.51-11.078-4.839" transform="translate(-1326.757 -18.219)" fill="#6c1a34"/>
        <path id="Trazado_873103" data-name="Trazado 873103" d="M1195.323,34.632c4.479-5.781,9.276-11.316,15.121-18.4-7.665-1.19-9.344,4.841-12.507,7.65-3.9,3.46-7.091,7.707-10.59,11.614l-1.6-1.2c-.364-6.371-.727-12.742-1.177-20.629-4.51,5.856-5.046,64.418-.811,70.534a57.813,57.813,0,0,0,1.564-15.295c-.2-5,1.147-8.534,5.091-12.012,7.772-6.854,14.939-14.41,22.126-21.9,1.284-1.338,1.456-3.745,2.141-5.658l-1.883-.911L1186.379,54.01c-2.8-10.752,4.917-14.182,8.944-19.377" transform="translate(-908.655 -10.523)" fill="#6c1a34"/>
        <path id="Trazado_873104" data-name="Trazado 873104" d="M1453.862,77.53l2.512-1.437c-1.095-2.244-1.858-4.741-3.343-6.686-5.464-7.156-11.409-13.958-16.609-21.293-1.255-1.77-1.322-5.608-.247-7.571,3.085-5.638,7.151-10.729,10.575-16.2,1.091-1.742,1.38-3.988,2.036-6l-2.373-1.156-16.175,23.045-17.474-22.183-2.383,1.322c.9,2.156,1.439,4.562,2.755,6.42,3.736,5.276,8.027,10.172,11.569,15.565,1.055,1.606,1.275,4.918.313,6.5-5.284,8.668-11.123,17-16.607,25.545a56.985,56.985,0,0,0-3.37,7.245l2.656,1.578,22.863-33.143,23.3,28.451" transform="translate(-1081.151 -13.226)" fill="#6c1a34"/>
        <path id="Trazado_873105" data-name="Trazado 873105" d="M20.445,49.056C15.153,43.3,8.814,38.182,4.857,31.624.8,24.907,3.494,16.889,3.731,7.819c9.833,8.8,15.637,18.874,25.9,26.12.131-2.645.357-3.263.146-3.51C21.413,20.6,13.088,10.746,4.514,1.11,3.563.04,1.166.257,0,0V76.955l2.85.107c.3-12.342.592-24.684.906-37.76,7.029,3.22,8.573,11.411,15.526,11.578l1.164-1.824" transform="translate(0 -0.001)" fill="#6c1a34"/>
        <path id="Trazado_873106" data-name="Trazado 873106" d="M2126.513,91.1V19.248l-2.626-.006c-1.755,23.932-.492,47.883-.292,71.827l2.918.029" transform="translate(-1633.582 -14.806)" fill="#6c1a34"/>
        <path id="Trazado_873107" data-name="Trazado 873107" d="M2886.688,21.363V88.139l-2.334,1.29L2860.6,59.379c-4.781,6.363-8.854,11.788-12.932,17.21-2.917,3.878-5.745,7.829-8.817,11.581-.854,1.042-2.434,1.489-3.682,2.21-.52-1.177-1.5-2.355-1.492-3.529q.1-29.872.5-59.743c.023-1.6,1.213-3.18,1.86-4.769,1.672.952,3.813,1.527,4.934,2.922,4.781,5.946,9.251,12.142,13.855,18.232,1.773,2.346,3.6,4.651,5.844,7.548,9.487-8.968,13.841-21.682,26.018-29.678m-3.67,12.888-2.457-1.715c-5.259,7.256-10.549,14.488-15.713,21.81a2.912,2.912,0,0,0,.173,2.661c5.167,7.121,10.446,14.161,15.7,21.223l2.3-1.029Zm-42.2-1.522-1.784,1.406V76.578l2.069,1.041c3.413-4.352,7.02-8.568,10.2-13.085,6.683-9.495,6.7-9.638-.023-18.945-3.23-4.472-6.958-8.585-10.461-12.86" transform="translate(-2180.462 -16.438)" fill="#6c1a34"/>
        <path id="Trazado_873108" data-name="Trazado 873108" d="M2587.567,49.187c7.05,6.317,12.914,11.463,18.65,16.748,3.789,3.492,3.807,6.384-1.305,8.96-8.017,4.04-15.878,8.4-23.7,12.819-3.036,1.716-5.115,1.5-4.983-2.246.33-9.39,1.367-18.76,1.565-28.149.278-13.182.094-26.375-.006-39.562-.013-1.784-.858-3.551-.994-5.35a20.555,20.555,0,0,1,.492-4.133c1.22.4,2.684.495,3.623,1.246,8.642,6.915,17.171,13.973,25.782,20.927,4.24,3.424,4.353,6.015-.923,8.6-5.486,2.692-10.706,5.925-18.206,10.136m-3.636-31.223-2.523,1.718c0,7.091-.068,14.182.027,21.272.052,3.9,2.189,4.837,5.511,3.217a105.9,105.9,0,0,0,12.233-6.437c1.393-.923,2.766-4.759,2.28-5.2-5.636-5.087-11.629-9.777-17.528-14.573m-1.32,63.318c3.534-1.916,5.739-3.1,7.931-4.3,12.371-6.8,12.432-6.862,2.972-16.845-2.932-3.094-6.306-5.768-10.9-9.923Z" transform="translate(-1982.356 -6.367)" fill="#6c1a34"/>
        <path id="Trazado_873109" data-name="Trazado 873109" d="M3194.578,40.356c3.687,3.966,7.316,7.988,11.075,11.884,5.842,6.055,6.01,5.922,11.292-.307,3.133-3.7,6.659-7.058,10.008-10.57l2.331.772V91.612c2.359-.509,3.415-1.144,3.418-1.784.1-18.018.135-36.036-.015-54.053-.01-1.265-1.35-3.273-2.437-3.562s-2.937.876-3.886,1.92c-4.792,5.268-9.4,10.705-14.6,16.689-1.987-1.89-3.825-3.5-5.5-5.264-3.506-3.686-6.687-7.72-10.448-11.114-3.883-3.5-8.493-2.1-8.533,2.489-.158,17.818-.034,35.638.173,53.456.013,1.137,1.62,2.256,2.485,3.383.8-1.216,2.222-2.4,2.287-3.653.239-4.612,0-9.248-.008-13.875q-.026-17.5-.006-35l2.364-.889" transform="translate(-2452.497 -24.753)" fill="#6c1a34"/>
        <path id="Trazado_873110" data-name="Trazado 873110" d="M4057.5,44.144c-.936-.348-2.294.439-3.459.705.482,1.123.659,2.689,1.51,3.275a21.129,21.129,0,0,0,5.622,2.553c6.219,1.958,8.558,5.918,8.121,12.528-.486,7.362.024,14.8.257,22.2a25.77,25.77,0,0,0,1.142,4.991l2.772-.219V57.415c5.131,2.457,8.284,4.461,11.726,5.522,10.131,3.124,14.581,9.436,12.826,20.142-.359,2.2.848,4.647,1.333,6.981l2.345-.283c.258-5.84.516-11.679.824-18.649l13.834,6.468,1.5-1.763c-1.9-1.7-3.549-4.338-5.749-4.932-9.651-2.609-11.358-9.417-10.5-17.95.185-1.841.318-3.695.333-5.544.044-5.307.015-10.615.015-15.923l-3.706-.125V63.475c-7.792-3.363-13.39-5.994-19.151-8.2-4.292-1.64-6.081-4.121-5.7-8.9.4-4.915-.214-9.91-.384-14.87l-3.213.066c-.388,5.506-.775,11.011-1.226,17.409-4.068-1.816-7.505-3.51-11.079-4.839" transform="translate(-3119.508 -24.13)" fill="#6c1a34"/>
        <path id="Trazado_873111" data-name="Trazado 873111" d="M3525.144,42.314c4.479-5.781,9.275-11.316,15.121-18.4-7.665-1.19-9.344,4.841-12.507,7.65-3.9,3.46-7.092,7.707-10.59,11.614l-1.6-1.2c-.364-6.371-.727-12.742-1.177-20.629-4.511,5.856-5.046,64.418-.811,70.534a57.828,57.828,0,0,0,1.564-15.295c-.2-5,1.147-8.534,5.091-12.012,7.773-6.854,14.939-14.41,22.126-21.9,1.284-1.338,1.456-3.745,2.141-5.658l-1.884-.911L3516.2,61.692c-2.8-10.752,4.917-14.182,8.944-19.377" transform="translate(-2701.407 -16.434)" fill="#6c1a34"/>
        <path id="Trazado_873112" data-name="Trazado 873112" d="M3783.684,85.212l2.512-1.437c-1.095-2.244-1.858-4.741-3.344-6.686-5.464-7.156-11.408-13.958-16.608-21.293-1.255-1.77-1.322-5.608-.247-7.571,3.084-5.638,7.151-10.729,10.575-16.2,1.091-1.742,1.38-3.988,2.036-6l-2.374-1.156-16.175,23.046-17.473-22.183-2.384,1.322c.9,2.156,1.438,4.562,2.754,6.42,3.737,5.276,8.027,10.172,11.569,15.565,1.054,1.606,1.274,4.918.313,6.5-5.283,8.668-11.123,17-16.607,25.545a57.016,57.016,0,0,0-3.37,7.245l2.656,1.578,22.863-33.143,23.3,28.451" transform="translate(-2873.904 -19.137)" fill="#6c1a34"/>
        <path id="Trazado_873113" data-name="Trazado 873113" d="M2350.266,56.737c-5.292-5.752-11.631-10.873-15.588-17.431-4.053-6.718-1.364-14.735-1.126-23.805,9.833,8.8,15.636,18.873,25.9,26.12.131-2.645.357-3.263.146-3.51-8.36-9.825-16.685-19.683-25.259-29.32-.951-1.069-3.349-.852-4.514-1.109V84.636l2.85.107c.3-12.342.592-24.684.906-37.76,7.03,3.22,8.573,11.411,15.527,11.578l1.163-1.824" transform="translate(-1792.752 -5.911)" fill="#6c1a34"/>
        <path id="Trazado_873114" data-name="Trazado 873114" d="M4456.335,98.78V26.93l-2.626-.006c-1.755,23.932-.492,47.883-.292,71.827l2.918.029" transform="translate(-3426.335 -20.717)" fill="#6c1a34"/>
      </g>
    </g>
  </g>
</svg>
